<svg width="300" height="237" viewBox="0 0 300 237" fill="none" xmlns="http://www.w3.org/2000/svg">
<path d="M277.131 166.542C277.131 179.234 275.293 191.497 271.869 203.079H25.1203C21.6964 191.498 19.8577 179.234 19.8577 166.542C19.8577 95.4972 77.4506 37.9043 148.494 37.9043C219.538 37.9043 277.131 95.4972 277.131 166.542Z" fill="#E4EAF4"/>
<path d="M262.092 194.638C262.092 195.239 261.605 195.726 261.004 195.726C260.403 195.726 259.916 195.239 259.916 194.638C259.916 194.038 260.403 193.551 261.004 193.551C261.605 193.551 262.092 194.038 262.092 194.638ZM247.681 199.586C247.681 200.187 247.194 200.674 246.593 200.674C245.992 200.674 245.505 200.187 245.505 199.586C245.505 198.985 245.992 198.498 246.593 198.498C247.194 198.498 247.681 198.985 247.681 199.586ZM224.596 191.706C224.596 192.306 224.109 192.793 223.508 192.793C222.907 192.793 222.42 192.306 222.42 191.706C222.42 191.105 222.907 190.618 223.508 190.618C224.109 190.618 224.596 191.105 224.596 191.706Z" fill="#B7BFCC"/>
<path d="M250.479 189.327C250.479 189.816 250.082 190.214 249.593 190.214C249.103 190.214 248.706 189.816 248.706 189.327C248.706 188.838 249.103 188.44 249.593 188.44C250.082 188.44 250.479 188.838 250.479 189.327ZM229.861 198.003C229.861 198.493 229.464 198.889 228.974 198.889C228.485 198.889 228.088 198.492 228.088 198.003C228.088 197.514 228.485 197.117 228.974 197.117C229.464 197.118 229.861 197.514 229.861 198.003Z" fill="#DEE9FC"/>
<path d="M256.363 92.5446L256.065 196.527C256.05 202.02 251.269 206.433 245.392 206.425L134.091 206.301L57.4705 206.209C51.5337 206.2 46.7708 201.752 46.7858 196.233L47.0858 91.6533C47.1016 86.1254 51.8905 81.6531 57.8274 81.6783L170.654 82.1978L187.543 82.272L245.747 82.542C251.624 82.5689 256.379 87.0515 256.363 92.5446Z" fill="#4285F4"/>
<path d="M89.2003 154.631L89.205 152.937C89.2058 152.693 89.3234 152.517 89.6574 152.518C89.9906 152.52 90.1066 152.696 90.1058 152.939L90.0995 155.053C90.0987 155.355 89.8832 155.472 89.6487 155.471L86.1 155.462C85.8655 155.461 85.6492 155.343 85.65 155.042C85.6508 154.74 85.8679 154.622 86.1024 154.623L87.4263 154.627L87.4405 149.778L86.1158 149.774C85.8813 149.774 85.665 149.656 85.6658 149.354C85.6666 149.052 85.8837 148.936 86.1182 148.936L88.3429 148.942L88.3263 154.628L89.2003 154.631ZM93.0348 154.641L96.1327 154.649C96.3671 154.65 96.5819 154.768 96.5811 155.07C96.5803 155.371 96.364 155.488 96.1295 155.487L92.1316 155.477L92.1387 152.743C92.1403 152.114 92.4837 151.796 93.1595 151.798L95.6898 151.805L95.6953 149.801L92.5982 149.792C92.3645 149.791 92.1482 149.674 92.1498 149.371C92.1505 149.07 92.3677 148.952 92.6013 148.953L95.5911 148.962C95.8879 148.962 96.0956 149.005 96.3198 149.198C96.5716 149.417 96.5977 149.644 96.5969 149.945L96.5913 151.665C96.5906 151.966 96.5637 152.193 96.3103 152.41C96.0845 152.602 95.8769 152.644 95.58 152.643L93.0403 152.636L93.0348 154.641ZM99.0782 149.81C98.8437 149.809 98.6282 149.692 98.6298 149.389C98.6306 149.087 98.8469 148.97 99.0806 148.971L102.177 148.98C102.69 148.981 103.076 149.343 103.074 149.821L103.07 151.43C103.069 151.766 102.996 152.009 102.716 152.243C102.995 152.479 103.066 152.722 103.066 153.057L103.061 154.666C103.059 155.144 102.671 155.504 102.159 155.502L99.0624 155.494C98.8279 155.494 98.6124 155.376 98.6132 155.074C98.614 154.773 98.8311 154.655 99.0648 154.655L102.161 154.664L102.165 153.272C102.167 152.802 101.968 152.659 101.717 152.659L99.9529 152.654C99.7184 152.653 99.5029 152.536 99.5037 152.234C99.5045 151.932 99.7216 151.815 99.9553 151.816L101.72 151.82C101.972 151.821 102.17 151.68 102.171 151.21L102.175 149.818L99.0782 149.81ZM108.193 152.552L108.2 150.129C108.201 149.919 108.309 149.71 108.651 149.711C108.992 149.712 109.1 149.922 109.1 150.132L109.093 152.554C109.326 152.554 109.543 152.672 109.542 152.974C109.54 153.276 109.325 153.393 109.09 153.392L109.086 155.103C109.085 155.371 108.958 155.521 108.634 155.521C108.31 155.52 108.185 155.368 108.186 155.101L108.19 153.39L105.546 153.383L105.557 149.408C105.557 149.198 105.666 148.99 106.007 148.99C106.349 148.992 106.457 149.201 106.456 149.411L106.447 152.547L108.193 152.552ZM121.581 154.717L121.586 153.024C121.587 152.782 121.704 152.606 122.037 152.607C122.369 152.607 122.486 152.783 122.485 153.027L122.48 155.138C122.479 155.439 122.263 155.556 122.029 155.556L118.487 155.547C118.253 155.546 118.037 155.428 118.038 155.127C118.039 154.825 118.256 154.707 118.49 154.709L119.811 154.713L119.825 149.869L118.503 149.865C118.27 149.864 118.055 149.746 118.055 149.445C118.056 149.143 118.272 149.026 118.506 149.027L120.727 149.033L120.711 154.715L121.581 154.717ZM125.409 154.726L128.5 154.735C128.734 154.736 128.949 154.853 128.949 155.155C128.948 155.457 128.732 155.573 128.498 155.573L124.508 155.562L124.516 152.831C124.517 152.202 124.86 151.885 125.533 151.887L128.058 151.894L128.064 149.892L124.974 149.883C124.74 149.881 124.524 149.764 124.525 149.462C124.526 149.161 124.742 149.044 124.976 149.044L127.96 149.053C128.256 149.054 128.463 149.097 128.687 149.29C128.938 149.509 128.964 149.734 128.963 150.037L128.958 151.754C128.957 152.056 128.93 152.281 128.677 152.498C128.452 152.691 128.245 152.732 127.948 152.731L125.413 152.724L125.409 154.726ZM131.44 149.901C131.207 149.9 130.991 149.783 130.992 149.48C130.993 149.179 131.208 149.063 131.443 149.063L134.532 149.072C135.044 149.074 135.429 149.434 135.428 149.913L135.423 151.521C135.422 151.857 135.35 152.099 135.07 152.333C135.347 152.568 135.419 152.811 135.418 153.146L135.414 154.754C135.412 155.232 135.025 155.591 134.513 155.589L131.423 155.581C131.19 155.58 130.974 155.463 130.975 155.161C130.976 154.86 131.192 154.743 131.426 154.744L134.516 154.752L134.52 153.361C134.522 152.892 134.324 152.749 134.073 152.749L132.313 152.745C132.079 152.744 131.863 152.626 131.864 152.324C131.866 152.022 132.081 151.906 132.315 151.906L134.076 151.912C134.327 151.913 134.525 151.771 134.526 151.301L134.53 149.911L131.44 149.901ZM140.537 152.64L140.544 150.219C140.544 150.01 140.653 149.801 140.994 149.802C141.335 149.803 141.443 150.012 141.442 150.222L141.435 152.642C141.669 152.642 141.883 152.761 141.883 153.062C141.882 153.363 141.666 153.48 141.433 153.479L141.428 155.188C141.427 155.457 141.301 155.607 140.978 155.606C140.655 155.605 140.529 155.454 140.53 155.186L140.535 153.477L137.895 153.47L137.906 149.5C137.907 149.291 138.015 149.082 138.356 149.082C138.697 149.083 138.805 149.293 138.804 149.502L138.795 152.634L140.537 152.64ZM153.899 154.802L153.905 153.111C153.905 152.868 154.022 152.693 154.354 152.693C154.686 152.694 154.803 152.87 154.802 153.113L154.796 155.223C154.795 155.524 154.579 155.641 154.346 155.641L150.811 155.631C150.578 155.63 150.362 155.513 150.363 155.211C150.364 154.909 150.58 154.793 150.813 154.793L152.132 154.797L152.146 149.958L150.827 149.954C150.594 149.953 150.378 149.836 150.38 149.535C150.381 149.233 150.597 149.117 150.83 149.117L153.046 149.123L153.03 154.799L153.899 154.802ZM157.718 154.812L160.804 154.821C161.037 154.822 161.252 154.939 161.251 155.24C161.25 155.542 161.034 155.658 160.802 155.658L156.819 155.647L156.827 152.918C156.828 152.29 157.17 151.973 157.843 151.975L160.363 151.982L160.369 149.982L157.284 149.973C157.051 149.972 156.835 149.854 156.836 149.553C156.837 149.251 157.053 149.135 157.286 149.136L160.265 149.145C160.56 149.146 160.767 149.188 160.99 149.381C161.241 149.6 161.267 149.825 161.266 150.127L161.261 151.842C161.26 152.144 161.233 152.37 160.981 152.587C160.756 152.779 160.55 152.82 160.254 152.818L157.724 152.812L157.718 154.812ZM163.739 149.991C163.506 149.99 163.291 149.873 163.292 149.571C163.292 149.269 163.509 149.153 163.742 149.154L166.825 149.162C167.337 149.164 167.721 149.524 167.721 150.002L167.716 151.609C167.715 151.943 167.642 152.186 167.364 152.419C167.642 152.655 167.712 152.897 167.711 153.232L167.706 154.838C167.705 155.316 167.319 155.674 166.806 155.673L163.723 155.665C163.49 155.664 163.274 155.547 163.276 155.245C163.277 154.943 163.492 154.827 163.725 154.827L166.809 154.836L166.813 153.447C166.813 152.978 166.618 152.835 166.367 152.834L164.609 152.829C164.376 152.828 164.161 152.711 164.162 152.409C164.162 152.108 164.379 151.992 164.612 151.992L166.369 151.997C166.62 151.998 166.817 151.856 166.819 151.388L166.823 149.999L163.739 149.991ZM172.818 152.728L172.825 150.31C172.825 150.101 172.933 149.892 173.274 149.892C173.615 149.894 173.721 150.103 173.721 150.312L173.713 152.731C173.946 152.731 174.161 152.849 174.16 153.15C174.159 153.451 173.945 153.567 173.711 153.567L173.706 155.274C173.706 155.542 173.58 155.692 173.257 155.692C172.934 155.691 172.81 155.539 172.81 155.272L172.816 153.565L170.181 153.558L170.192 149.592C170.192 149.382 170.301 149.173 170.641 149.174C170.981 149.176 171.088 149.385 171.088 149.595L171.079 152.723L172.818 152.728ZM186.171 149.217C186.664 149.218 187.066 149.596 187.064 150.057L187.05 154.891C187.049 155.359 186.662 155.726 186.152 155.725L183.519 155.718C183.009 155.716 182.624 155.348 182.626 154.879L182.639 150.044C182.641 149.584 183.045 149.209 183.537 149.21L186.171 149.217ZM186.155 154.888L186.168 150.053L183.535 150.046L183.522 154.881L186.155 154.888ZM192.614 149.236C193.107 149.237 193.509 149.614 193.508 150.075L193.494 154.908C193.492 155.376 193.106 155.743 192.596 155.742L189.964 155.734C189.454 155.733 189.069 155.364 189.071 154.896L189.085 150.062C189.086 149.602 189.49 149.227 189.983 149.228L192.614 149.236ZM192.598 154.906L192.613 150.072L189.981 150.064L189.967 154.898L192.598 154.906ZM199.056 149.254C199.548 149.256 199.95 149.633 199.948 150.093L199.935 154.925C199.933 155.393 199.547 155.761 199.037 155.759L196.407 155.752C195.897 155.75 195.513 155.382 195.515 154.913L195.528 150.08C195.53 149.62 195.933 149.246 196.425 149.247L199.056 149.254ZM199.04 154.923L199.053 150.09L196.422 150.082L196.408 154.915L199.04 154.923ZM205.494 149.272C205.986 149.273 206.388 149.651 206.387 150.11L206.373 154.942C206.372 155.41 205.986 155.776 205.476 155.776L202.846 155.768C202.337 155.767 201.952 155.398 201.953 154.93L201.966 150.098C201.968 149.639 202.371 149.264 202.863 149.265L205.494 149.272ZM205.478 154.94L205.491 150.108L202.862 150.101L202.848 154.932L205.478 154.94ZM218.347 154.973L218.353 153.286C218.353 153.043 218.47 152.868 218.801 152.869C219.132 152.869 219.248 153.046 219.247 153.288L219.241 155.393C219.24 155.694 219.025 155.81 218.792 155.81L215.271 155.801C215.038 155.8 214.824 155.682 214.824 155.382C214.825 155.082 215.041 154.965 215.273 154.966L216.587 154.969L216.601 150.139L215.286 150.135C215.054 150.134 214.839 150.016 214.84 149.716C214.841 149.414 215.056 149.298 215.289 149.299L217.496 149.305L217.479 154.97L218.347 154.973ZM222.152 154.984L225.226 154.992C225.458 154.993 225.672 155.111 225.672 155.412C225.671 155.712 225.456 155.828 225.223 155.828L221.256 155.817L221.264 153.094C221.266 152.468 221.606 152.15 222.276 152.153L224.787 152.159L224.792 150.162L221.719 150.154C221.486 150.153 221.272 150.036 221.273 149.735C221.274 149.434 221.488 149.318 221.721 149.318L224.687 149.327C224.983 149.328 225.188 149.37 225.411 149.563C225.661 149.781 225.686 150.006 225.685 150.307L225.681 152.02C225.68 152.321 225.652 152.546 225.401 152.762C225.178 152.954 224.972 152.995 224.677 152.994L222.157 152.987L222.152 154.984ZM228.148 150.172C227.916 150.171 227.702 150.054 227.703 149.753C227.704 149.452 227.919 149.336 228.151 149.337L231.223 149.345C231.732 149.347 232.116 149.707 232.114 150.183L232.109 151.786C232.108 152.12 232.036 152.362 231.758 152.596C232.034 152.83 232.105 153.072 232.104 153.406L232.1 155.01C232.098 155.486 231.713 155.844 231.204 155.843L228.132 155.835C227.901 155.834 227.686 155.716 227.687 155.416C227.687 155.116 227.902 154.999 228.134 154.999L231.206 155.007L231.21 153.621C231.212 153.154 231.015 153.011 230.766 153.01L229.015 153.005C228.783 153.004 228.568 152.887 228.57 152.587C228.57 152.285 228.786 152.17 229.018 152.171L230.768 152.175C231.018 152.176 231.215 152.034 231.216 151.567L231.22 150.181L228.148 150.172ZM237.193 152.903L237.2 150.489C237.201 150.28 237.307 150.072 237.647 150.073C237.987 150.074 238.093 150.283 238.093 150.492L238.086 152.905C238.318 152.906 238.532 153.023 238.531 153.324C238.53 153.625 238.315 153.741 238.083 153.74L238.078 155.444C238.078 155.712 237.952 155.861 237.631 155.86C237.309 155.859 237.185 155.708 237.186 155.441L237.19 153.737L234.565 153.73L234.576 149.771C234.577 149.562 234.685 149.354 235.024 149.355C235.363 149.356 235.47 149.565 235.469 149.773L235.46 152.897L237.193 152.903Z" fill="#3961A4"/>
<path d="M46.7913 185.598L256.073 185.953L256.135 164.088L46.8544 163.607L46.7913 185.598Z" fill="#3961A4"/>
<path opacity="0.25" d="M192.553 113.83C192.438 153.595 168.917 188.199 134.09 206.301L57.4697 206.209C51.5328 206.2 46.7699 201.752 46.7849 196.233L47.0849 91.6533C47.1007 86.1254 51.8897 81.6531 57.8265 81.6783L170.653 82.1978L187.542 82.272C190.84 92.2454 192.584 102.844 192.553 113.83Z" fill="#F2F7FF"/>
<path opacity="0.1" d="M170.654 82.1993C167.262 138.092 117.475 182.346 56.618 182.24C53.3085 182.23 50.0503 182.102 46.8269 181.819L47.0858 91.6548C47.1016 86.1269 51.8906 81.6545 57.8274 81.6798L170.654 82.1993Z" fill="#F2F7FF"/>
<path d="M91.1424 112.552L71.1316 112.489C69.5069 112.484 68.1924 111.253 68.1972 109.739L68.2406 94.706C68.2445 93.1926 69.5661 91.9712 71.1908 91.9776L91.2008 92.0589C92.8224 92.0652 94.1337 93.296 94.129 94.8078L94.0864 109.823C94.0816 111.335 92.764 112.557 91.1424 112.552ZM106.591 103.768V105.317C106.591 107.184 105.559 108.25 103.57 108.25C101.582 108.25 100.55 107.184 100.55 105.317V99.2541C100.55 97.3886 101.582 96.322 103.57 96.322C105.56 96.322 106.591 97.3878 106.591 99.2541V100.387H104.676V99.1381C104.676 98.3052 104.27 97.9886 103.626 97.9886C102.981 97.9886 102.576 98.3052 102.576 99.1381V105.435C102.576 106.269 102.981 106.569 103.626 106.569C104.27 106.569 104.676 106.269 104.676 105.435V103.769H106.591V103.768ZM112.06 108.117C111.949 107.817 111.876 107.634 111.876 106.685V104.852C111.876 103.769 111.47 103.37 110.549 103.37H109.849V108.118H107.823V96.4562H110.881C112.981 96.4562 113.883 97.3397 113.883 99.1389V100.055C113.883 101.255 113.459 102.038 112.557 102.422C113.571 102.804 113.902 103.687 113.902 104.903V106.702C113.902 107.268 113.92 107.685 114.123 108.118H112.06V108.117ZM109.849 98.122V101.703H110.641C111.396 101.703 111.857 101.403 111.857 100.471V99.3212C111.857 98.4883 111.544 98.122 110.826 98.122H109.849ZM117.252 101.37H120.033V103.036H117.252V106.451H120.752V108.117H115.226V96.4555H120.752V98.122H117.252V101.37ZM122.002 96.4555H125.207C127.233 96.4555 128.227 97.4723 128.227 99.3378V105.235C128.227 107.101 127.233 108.117 125.207 108.117H122.002V96.4555ZM124.028 98.122V106.452H125.17C125.815 106.452 126.202 106.152 126.202 105.318V99.2549C126.202 98.422 125.815 98.122 125.17 98.122H124.028ZM129.516 96.4555H131.541V108.117H129.516V96.4555ZM132.424 96.4555H138.686V98.122H136.568V108.118H134.542V98.122H132.424V96.4555ZM148.299 103.768V105.317C148.299 107.184 147.267 108.25 145.278 108.25C143.29 108.25 142.258 107.184 142.258 105.317V99.2541C142.258 97.3886 143.29 96.322 145.278 96.322C147.268 96.322 148.299 97.3878 148.299 99.2541V100.387H146.383V99.1381C146.383 98.3052 145.978 97.9886 145.333 97.9886C144.688 97.9886 144.283 98.3052 144.283 99.1381V105.435C144.283 106.269 144.688 106.569 145.333 106.569C145.978 106.569 146.383 106.269 146.383 105.435V103.769H148.299V103.768ZM156.088 108.117H154.045L153.695 106.001H151.208L150.858 108.117H148.998L151.061 96.4555H154.026L156.088 108.117ZM151.465 104.419H153.418L152.442 98.5215L151.465 104.419ZM161.263 108.117C161.152 107.817 161.079 107.634 161.079 106.685V104.852C161.079 103.769 160.673 103.37 159.752 103.37H159.052V108.118H157.026V96.4562H160.084C162.184 96.4562 163.086 97.3397 163.086 99.1389V100.055C163.086 101.255 162.662 102.038 161.76 102.422C162.773 102.804 163.105 103.687 163.105 104.903V106.702C163.105 107.268 163.123 107.685 163.326 108.118H161.263V108.117ZM159.052 98.122V101.703H159.844C160.6 101.703 161.059 101.403 161.059 100.471V99.3212C161.059 98.4883 160.746 98.122 160.028 98.122H159.052ZM164.428 96.4555H167.633C169.66 96.4555 170.653 97.4723 170.653 99.3378V105.235C170.653 107.101 169.66 108.117 167.633 108.117H164.428V96.4555ZM166.454 98.122V106.452H167.597C168.242 106.452 168.628 106.152 168.628 105.318V99.2549C168.628 98.422 168.242 98.122 167.597 98.122H166.454Z" fill="#F2F7FF"/>
</svg>
