<svg width="241" height="158" viewBox="0 0 241 158" fill="none" xmlns="http://www.w3.org/2000/svg">
<path d="M240.656 120.439C240.656 132.285 238.94 143.731 235.744 154.54H5.44557C2.24989 143.731 0.533783 132.285 0.533783 120.439C0.533783 54.1306 54.2872 0.377197 120.594 0.377197C186.903 0.377197 240.656 54.1306 240.656 120.439Z" fill="#E4EAF4"/>
<path d="M226.619 146.662C226.619 147.223 226.164 147.678 225.604 147.678C225.043 147.678 224.588 147.223 224.588 146.662C224.588 146.102 225.043 145.647 225.604 145.647C226.164 145.647 226.619 146.102 226.619 146.662ZM213.169 151.28C213.169 151.841 212.714 152.296 212.153 152.296C211.593 152.296 211.138 151.841 211.138 151.28C211.138 150.719 211.593 150.265 212.153 150.265C212.714 150.265 213.169 150.719 213.169 151.28ZM191.623 143.925C191.623 144.486 191.168 144.94 190.607 144.94C190.047 144.94 189.592 144.486 189.592 143.925C189.592 143.364 190.047 142.91 190.607 142.91C191.168 142.91 191.623 143.364 191.623 143.925Z" fill="#B7BFCC"/>
<path d="M215.78 141.705C215.78 142.162 215.41 142.532 214.953 142.532C214.497 142.532 214.126 142.162 214.126 141.705C214.126 141.248 214.497 140.877 214.953 140.877C215.41 140.877 215.78 141.248 215.78 141.705ZM196.537 149.803C196.537 150.26 196.166 150.63 195.709 150.63C195.252 150.63 194.882 150.259 194.882 149.803C194.882 149.346 195.252 148.975 195.709 148.975C196.166 148.976 196.537 149.346 196.537 149.803Z" fill="#DEE9FC"/>
<path d="M221.273 51.3749L220.994 148.425C220.98 153.552 216.518 157.671 211.033 157.663L107.152 157.548L35.6392 157.462C30.0981 157.454 25.6528 153.302 25.6668 148.151L25.9467 50.543C25.9615 45.3836 30.4312 41.2094 35.9722 41.233L141.277 41.7179L157.04 41.7871L211.364 42.0391C216.849 42.0642 221.287 46.248 221.273 51.3749Z" fill="#4285F4"/>
<path d="M65.2536 109.322L65.258 107.741C65.2587 107.514 65.3685 107.35 65.6802 107.351C65.9912 107.352 66.0995 107.516 66.0987 107.743L66.0928 109.717C66.0921 109.998 65.891 110.107 65.6721 110.106L62.36 110.098C62.1412 110.098 61.9393 109.987 61.94 109.706C61.9407 109.424 62.1434 109.314 62.3622 109.315L63.5979 109.319L63.6112 104.793L62.3747 104.789C62.1559 104.789 61.954 104.679 61.9547 104.397C61.9555 104.116 62.1581 104.007 62.3769 104.007L64.4534 104.013L64.4379 109.32L65.2536 109.322ZM68.8324 109.332L71.7238 109.339C71.9426 109.34 72.1431 109.451 72.1423 109.732C72.1416 110.014 71.9397 110.123 71.7208 110.122L67.9895 110.112L67.9961 107.561C67.9976 106.973 68.3181 106.676 68.9488 106.679L71.3104 106.685L71.3156 104.814L68.425 104.806C68.2068 104.806 68.0049 104.696 68.0064 104.414C68.0072 104.132 68.2098 104.022 68.4279 104.023L71.2183 104.031C71.4954 104.032 71.6892 104.072 71.8984 104.252C72.1335 104.456 72.1578 104.668 72.1571 104.949L72.1519 106.554C72.1512 106.836 72.1261 107.047 71.8896 107.25C71.6788 107.429 71.4851 107.468 71.208 107.467L68.8376 107.46L68.8324 109.332ZM74.4729 104.823C74.2541 104.823 74.053 104.713 74.0544 104.431C74.0552 104.148 74.2571 104.039 74.4752 104.04L77.3651 104.048C77.844 104.05 78.2043 104.387 78.2028 104.833L78.1984 106.335C78.1977 106.648 78.1299 106.875 77.8683 107.093C78.1284 107.314 78.1947 107.541 78.1947 107.853L78.1903 109.356C78.1888 109.801 77.8263 110.137 77.3481 110.136L74.4582 110.129C74.2394 110.129 74.0382 110.018 74.0389 109.737C74.0397 109.455 74.2423 109.345 74.4604 109.345L77.3503 109.353L77.354 108.054C77.3555 107.616 77.1705 107.482 76.9355 107.482L75.2894 107.477C75.0705 107.477 74.8694 107.367 74.8701 107.085C74.8708 106.803 75.0735 106.694 75.2916 106.695L76.9384 106.699C77.1735 106.7 77.3584 106.568 77.3599 106.13L77.3636 104.831L74.4729 104.823ZM82.9798 107.382L82.9864 105.121C82.9872 104.925 83.0881 104.73 83.4072 104.73C83.7262 104.731 83.8264 104.927 83.8264 105.123L83.8205 107.384C84.0379 107.385 84.2398 107.494 84.2391 107.777C84.2376 108.058 84.0364 108.167 83.8176 108.166L83.8132 109.763C83.8124 110.014 83.6945 110.154 83.3917 110.153C83.0896 110.152 82.9724 110.011 82.9732 109.761L82.9776 108.164L80.5092 108.157L80.5195 104.448C80.5195 104.252 80.6212 104.058 80.9402 104.058C81.2593 104.059 81.3595 104.254 81.3587 104.45L81.3506 107.377L82.9798 107.382ZM95.4759 109.403L95.4803 107.823C95.4811 107.597 95.5901 107.432 95.9011 107.433C96.2113 107.434 96.3203 107.598 96.3196 107.825L96.3144 109.796C96.3137 110.077 96.1118 110.186 95.8937 110.186L92.5875 110.177C92.3694 110.176 92.1682 110.067 92.169 109.785C92.1697 109.504 92.3723 109.394 92.5904 109.395L93.8239 109.399L93.8364 104.878L92.603 104.874C92.3848 104.873 92.1844 104.764 92.1844 104.482C92.1852 104.201 92.3871 104.091 92.6059 104.092L94.6786 104.098L94.6632 109.401L95.4759 109.403ZM99.0481 109.412L101.934 109.42C102.152 109.42 102.353 109.53 102.352 109.812C102.351 110.093 102.15 110.202 101.931 110.201L98.2074 110.192L98.2147 107.642C98.2162 107.056 98.536 106.76 99.1645 106.762L101.521 106.768L101.527 104.899L98.6421 104.891C98.424 104.89 98.2228 104.781 98.2236 104.498C98.2243 104.217 98.4262 104.108 98.6443 104.109L101.43 104.117C101.706 104.117 101.899 104.157 102.107 104.338C102.342 104.542 102.366 104.753 102.365 105.035L102.361 106.637C102.36 106.919 102.334 107.13 102.099 107.332C101.889 107.512 101.696 107.55 101.419 107.55L99.0525 107.543L99.0481 109.412ZM104.678 104.908C104.459 104.907 104.258 104.797 104.259 104.515C104.26 104.235 104.461 104.125 104.68 104.126L107.563 104.134C108.041 104.136 108.401 104.473 108.399 104.919L108.395 106.42C108.394 106.733 108.326 106.959 108.066 107.177C108.324 107.397 108.391 107.624 108.391 107.936L108.387 109.437C108.385 109.883 108.024 110.218 107.545 110.217L104.661 110.21C104.444 110.208 104.243 110.099 104.244 109.818C104.244 109.536 104.445 109.427 104.664 109.428L107.548 109.436L107.552 108.138C107.553 107.7 107.369 107.567 107.135 107.566L105.492 107.562C105.274 107.561 105.073 107.451 105.073 107.169C105.075 106.888 105.276 106.78 105.494 106.78L107.137 106.785C107.371 106.785 107.556 106.653 107.558 106.214L107.562 104.917L104.678 104.908ZM113.168 107.464L113.175 105.205C113.175 105.01 113.277 104.814 113.594 104.815C113.912 104.817 114.013 105.012 114.013 105.207L114.006 107.466C114.224 107.466 114.425 107.577 114.424 107.858C114.423 108.139 114.222 108.248 114.004 108.247L113.999 109.843C113.999 110.093 113.881 110.233 113.579 110.232C113.278 110.232 113.161 110.091 113.162 109.84L113.166 108.246L110.702 108.239L110.712 104.534C110.713 104.338 110.814 104.143 111.132 104.144C111.451 104.145 111.552 104.341 111.55 104.536L111.542 107.459L113.168 107.464ZM125.639 109.482L125.644 107.904C125.644 107.677 125.754 107.513 126.064 107.514C126.374 107.515 126.483 107.679 126.482 107.906L126.476 109.875C126.476 110.157 126.274 110.265 126.056 110.265L122.757 110.256C122.539 110.255 122.338 110.145 122.339 109.864C122.34 109.583 122.542 109.473 122.759 109.474L123.99 109.477L124.003 104.961L122.771 104.957C122.554 104.957 122.353 104.847 122.354 104.566C122.355 104.285 122.557 104.176 122.774 104.176L124.843 104.181L124.828 109.479L125.639 109.482ZM129.203 109.492L132.084 109.5C132.301 109.501 132.501 109.611 132.501 109.891C132.5 110.173 132.299 110.281 132.081 110.281L128.364 110.271L128.371 107.723C128.373 107.138 128.692 106.841 129.32 106.844L131.673 106.85L131.678 104.983L128.798 104.975C128.581 104.974 128.38 104.865 128.38 104.583C128.381 104.302 128.583 104.193 128.8 104.194L131.58 104.202C131.856 104.203 132.049 104.243 132.258 104.422C132.492 104.627 132.516 104.837 132.515 105.119L132.51 106.72C132.51 107.001 132.484 107.212 132.249 107.415C132.039 107.594 131.846 107.632 131.571 107.631L129.209 107.625L129.203 109.492ZM134.823 104.992C134.605 104.991 134.405 104.881 134.405 104.6C134.406 104.319 134.608 104.21 134.825 104.211L137.704 104.218C138.181 104.22 138.54 104.557 138.539 105.002L138.535 106.502C138.534 106.814 138.466 107.04 138.206 107.259C138.465 107.478 138.531 107.704 138.53 108.017L138.526 109.516C138.524 109.962 138.164 110.297 137.686 110.295L134.808 110.288C134.59 110.287 134.389 110.177 134.391 109.896C134.391 109.614 134.593 109.505 134.81 109.506L137.688 109.514L137.692 108.217C137.693 107.779 137.51 107.646 137.275 107.645L135.635 107.641C135.417 107.64 135.217 107.53 135.217 107.249C135.218 106.967 135.42 106.859 135.637 106.86L137.278 106.864C137.512 106.865 137.696 106.732 137.698 106.295L137.701 104.999L134.823 104.992ZM143.297 107.547L143.304 105.29C143.304 105.094 143.405 104.899 143.722 104.9C144.04 104.901 144.14 105.097 144.139 105.292L144.133 107.549C144.35 107.55 144.55 107.659 144.55 107.94C144.549 108.221 144.348 108.33 144.13 108.33L144.126 109.923C144.125 110.173 144.008 110.313 143.707 110.313C143.405 110.312 143.29 110.171 143.29 109.921L143.295 108.328L140.835 108.321L140.845 104.619C140.846 104.424 140.947 104.229 141.265 104.229C141.582 104.231 141.683 104.426 141.682 104.622L141.674 107.542L143.297 107.547ZM155.76 104.27C156.22 104.271 156.595 104.624 156.593 105.053L156.58 109.565C156.579 110.002 156.218 110.344 155.742 110.344L153.284 110.337C152.809 110.336 152.449 109.991 152.451 109.554L152.463 105.041C152.465 104.612 152.842 104.262 153.301 104.263L155.76 104.27ZM155.744 109.563L155.757 105.05L153.3 105.044L153.287 109.556L155.744 109.563ZM161.773 104.287C162.233 104.288 162.608 104.641 162.607 105.07L162.594 109.581C162.593 110.018 162.232 110.361 161.756 110.359L159.3 110.353C158.824 110.351 158.465 110.007 158.466 109.57L158.48 105.058C158.48 104.629 158.858 104.279 159.317 104.28L161.773 104.287ZM161.759 109.579L161.772 105.067L159.315 105.061L159.303 109.572L161.759 109.579ZM167.786 104.305C168.245 104.306 168.62 104.657 168.619 105.087L168.606 109.597C168.605 110.034 168.244 110.377 167.768 110.375L165.313 110.369C164.837 110.367 164.479 110.023 164.48 109.586L164.493 105.075C164.494 104.646 164.871 104.296 165.33 104.297L167.786 104.305ZM167.77 109.595L167.783 105.084L165.327 105.077L165.315 109.588L167.77 109.595ZM173.795 104.321C174.254 104.322 174.629 104.674 174.627 105.103L174.615 109.613C174.613 110.05 174.253 110.392 173.777 110.391L171.323 110.384C170.847 110.383 170.489 110.039 170.489 109.602L170.502 105.092C170.503 104.663 170.88 104.313 171.339 104.314L173.795 104.321ZM173.779 109.611L173.792 105.101L171.337 105.094L171.325 109.604L173.779 109.611ZM185.791 109.642L185.796 108.067C185.797 107.841 185.906 107.677 186.214 107.678C186.523 107.679 186.631 107.843 186.631 108.069L186.625 110.034C186.624 110.315 186.423 110.423 186.206 110.423L182.919 110.414C182.703 110.414 182.502 110.304 182.503 110.024C182.504 109.743 182.705 109.634 182.921 109.635L184.148 109.638L184.161 105.13L182.934 105.126C182.717 105.125 182.517 105.016 182.518 104.735C182.518 104.453 182.719 104.345 182.936 104.346L184.996 104.352L184.981 109.639L185.791 109.642ZM189.341 109.653L192.211 109.66C192.427 109.661 192.627 109.77 192.627 110.051C192.626 110.331 192.425 110.44 192.209 110.439L188.506 110.43L188.513 107.888C188.515 107.303 188.832 107.007 189.458 107.009L191.801 107.015L191.806 105.152L188.938 105.144C188.72 105.143 188.521 105.034 188.521 104.753C188.522 104.473 188.723 104.363 188.94 104.364L191.708 104.372C191.984 104.373 192.175 104.412 192.383 104.593C192.617 104.796 192.64 105.006 192.64 105.287L192.635 106.886C192.634 107.166 192.609 107.376 192.374 107.578C192.166 107.757 191.974 107.796 191.699 107.795L189.347 107.788L189.341 109.653ZM194.939 105.161C194.722 105.16 194.522 105.051 194.523 104.769C194.524 104.489 194.724 104.38 194.941 104.381L197.808 104.389C198.283 104.391 198.641 104.727 198.64 105.171L198.635 106.668C198.635 106.979 198.567 107.205 198.307 107.423C198.565 107.642 198.632 107.867 198.63 108.179L198.626 109.676C198.625 110.12 198.265 110.455 197.79 110.453L194.923 110.446C194.707 110.445 194.507 110.336 194.507 110.056C194.508 109.775 194.709 109.667 194.925 109.667L197.792 109.674L197.796 108.38C197.797 107.944 197.614 107.81 197.381 107.81L195.748 107.805C195.531 107.805 195.331 107.695 195.332 107.415C195.332 107.133 195.533 107.026 195.75 107.026L197.383 107.03C197.617 107.031 197.8 106.899 197.802 106.463L197.806 105.169L194.939 105.161ZM203.38 107.709L203.386 105.457C203.387 105.262 203.487 105.068 203.804 105.069C204.121 105.069 204.22 105.265 204.22 105.46L204.213 107.712C204.43 107.712 204.629 107.822 204.629 108.103C204.628 108.384 204.428 108.492 204.211 108.491L204.207 110.081C204.206 110.331 204.089 110.47 203.789 110.47C203.489 110.469 203.372 110.328 203.373 110.078L203.378 108.488L200.928 108.482L200.938 104.786C200.939 104.592 201.04 104.397 201.356 104.398C201.673 104.399 201.772 104.594 201.771 104.789L201.762 107.704L203.38 107.709Z" fill="#3961A4"/>
<path d="M25.6719 138.225L221.001 138.557L221.06 118.149L25.7309 117.7L25.6719 138.225Z" fill="#3961A4"/>
<path opacity="0.25" d="M161.716 71.2409C161.609 108.355 139.656 140.652 107.151 157.548L35.6384 157.462C30.0974 157.454 25.652 153.302 25.666 148.151L25.946 50.543C25.9607 45.3836 30.4304 41.2094 35.9715 41.233L141.277 41.7179L157.039 41.7871C160.118 51.0956 161.745 60.9877 161.716 71.2409Z" fill="#F2F7FF"/>
<path opacity="0.1" d="M141.277 41.7193C138.111 93.8863 91.6436 135.189 34.8434 135.09C31.7545 135.082 28.7136 134.962 25.705 134.698L25.9467 50.5445C25.9615 45.3851 30.4312 41.2109 35.9722 41.2345L141.277 41.7193Z" fill="#F2F7FF"/>
<path d="M67.0662 70.0486L48.3895 69.9896C46.8731 69.9852 45.6462 68.8357 45.6506 67.4232L45.6912 53.3922C45.6949 51.9797 46.9283 50.8398 48.4448 50.8457L67.1207 50.9216C68.6342 50.9275 69.8581 52.0763 69.8537 53.4873L69.8139 67.5013C69.8095 68.9131 68.5797 70.053 67.0662 70.0486ZM81.4848 61.8505V63.2961C81.4848 65.038 80.5217 66.0335 78.6656 66.0335C76.8095 66.0335 75.8464 65.038 75.8464 63.2961V57.6372C75.8464 55.896 76.8095 54.9006 78.6656 54.9006C80.5224 54.9006 81.4848 55.8953 81.4848 57.6372V58.6946H79.6972V57.5289C79.6972 56.7515 79.3184 56.456 78.7172 56.456C78.1152 56.456 77.7372 56.7515 77.7372 57.5289V63.4059C77.7372 64.184 78.1152 64.464 78.7172 64.464C79.3184 64.464 79.6972 64.184 79.6972 63.4059V61.8512H81.4848V61.8505ZM86.5889 65.909C86.4857 65.629 86.4172 65.458 86.4172 64.5724V62.8621C86.4172 61.8512 86.0384 61.4784 85.1793 61.4784H84.5257V65.9097H82.635V55.0258H85.4888C87.4488 55.0258 88.291 55.8504 88.291 57.5296V58.3851C88.291 59.5044 87.8953 60.2353 87.0531 60.5934C87.9992 60.9508 88.3086 61.7746 88.3086 62.9093V64.5886C88.3086 65.1169 88.3256 65.5059 88.515 65.9105H86.5889V65.909ZM84.5257 56.5806V59.9229H85.2647C85.9699 59.9229 86.3995 59.6429 86.3995 58.7727V57.6998C86.3995 56.9225 86.1077 56.5806 85.4372 56.5806H84.5257ZM91.4351 59.6119H94.031V61.1667H91.4351V64.3543H94.7015V65.909H89.5443V55.0251H94.7015V56.5806H91.4351V59.6119ZM95.8686 55.0251H98.8595C100.751 55.0251 101.679 55.9741 101.679 57.7153V63.2195C101.679 64.9607 100.751 65.909 98.8595 65.909H95.8686V55.0251ZM97.7594 56.5806V64.355H98.8256C99.4276 64.355 99.7886 64.075 99.7886 63.2969V57.6379C99.7886 56.8606 99.4276 56.5806 98.8256 56.5806H97.7594ZM102.881 55.0251H104.772V65.909H102.881V55.0251ZM105.596 55.0251H111.44V56.5806H109.463V65.9097H107.573V56.5806H105.596V55.0251ZM120.412 61.8505V63.2961C120.412 65.038 119.449 66.0335 117.593 66.0335C115.737 66.0335 114.774 65.038 114.774 63.2961V57.6372C114.774 55.896 115.737 54.9006 117.593 54.9006C119.45 54.9006 120.412 55.8953 120.412 57.6372V58.6946H118.625V57.5289C118.625 56.7515 118.246 56.456 117.645 56.456C117.043 56.456 116.665 56.7515 116.665 57.5289V63.4059C116.665 64.184 117.043 64.464 117.645 64.464C118.246 64.464 118.625 64.184 118.625 63.4059V61.8512H120.412V61.8505ZM127.683 65.909H125.775L125.448 63.9343H123.127L122.801 65.909H121.065L122.99 55.0251H125.758L127.683 65.909ZM123.368 62.4576H125.19L124.279 56.9534L123.368 62.4576ZM132.512 65.909C132.409 65.629 132.34 65.458 132.34 64.5724V62.8621C132.34 61.8512 131.961 61.4784 131.102 61.4784H130.449V65.9097H128.558V55.0258H131.412C133.372 55.0258 134.214 55.8504 134.214 57.5296V58.3851C134.214 59.5044 133.818 60.2353 132.976 60.5934C133.921 60.9508 134.232 61.7746 134.232 62.9093V64.5886C134.232 65.1169 134.249 65.5059 134.438 65.9105H132.512V65.909ZM130.449 56.5806V59.9229H131.188C131.893 59.9229 132.322 59.6429 132.322 58.7727V57.6998C132.322 56.9225 132.03 56.5806 131.359 56.5806H130.449ZM135.467 55.0251H138.457C140.349 55.0251 141.277 55.9741 141.277 57.7153V63.2195C141.277 64.9607 140.349 65.909 138.457 65.909H135.467V55.0251ZM137.357 56.5806V64.355H138.423C139.025 64.355 139.387 64.075 139.387 63.2969V57.6379C139.387 56.8606 139.025 56.5806 138.423 56.5806H137.357Z" fill="#F2F7FF"/>
</svg>
