<svg width="280" height="213" viewBox="0 0 280 213" fill="none" xmlns="http://www.w3.org/2000/svg">
<g clip-path="url(#clip0_98_1527)">
<path d="M239.833 37.6475C240.743 37.6475 240.744 35.8597 239.833 35.8597H235.562V14.2733H239.833C240.743 14.2733 240.744 12.4834 239.833 12.4834H235.562V1.45735C235.562 0.306047 234.148 0.306047 234.148 1.45735V12.4876H216.076V1.45735C216.076 0.306047 214.663 0.306047 214.663 1.45735V12.4876H196.591V1.45735C196.591 0.306047 195.178 0.306047 195.178 1.45735V12.4876H177.107V1.45735C177.107 0.306047 175.694 0.306047 175.694 1.45735V12.4876H157.622V1.45735C157.622 0.306047 156.208 0.306047 156.208 1.45735V12.4876H138.139V1.45735C138.139 0.306047 136.726 0.306047 136.726 1.45735V12.4876H118.651V1.45735C118.651 0.306047 117.238 0.306047 117.238 1.45735V12.4876H99.1667V1.45735C99.1667 0.306047 97.7538 0.306047 97.7538 1.45735V12.4876H79.6821V1.45735C79.6821 0.306047 78.2676 0.306047 78.2676 1.45735V12.4876H60.1958V1.45735C60.1958 0.306047 58.783 0.306047 58.783 1.45735V12.4876H54.5124C53.6025 12.4876 53.6008 14.2776 54.5124 14.2776H58.783V35.8512H54.5124C53.6025 35.8512 53.6008 37.639 54.5124 37.639H58.783V59.2339H54.5124C53.6025 59.2339 53.6008 61.0217 54.5124 61.0217H58.783V82.5953H54.5124C53.6025 82.5953 53.6008 84.3831 54.5124 84.3831H58.783V105.969H54.5124C53.6025 105.969 53.6008 107.757 54.5124 107.757H58.783V129.331H54.5124C53.6025 129.331 53.6008 131.119 54.5124 131.119H58.783V152.705H54.5124C53.6025 152.705 53.6008 154.493 54.5124 154.493H58.783V165.523C58.783 166.674 60.1958 166.677 60.1958 165.523V154.493H78.2676V165.523C78.2676 166.674 79.6821 166.677 79.6821 165.523V154.493H97.7538V165.523C97.7538 166.674 99.1667 166.677 99.1667 165.523V154.493H117.238V165.523C117.238 166.674 118.651 166.677 118.651 165.523V154.493H136.723V165.523C136.723 166.674 138.136 166.677 138.136 165.523V154.493H156.201V165.523C156.201 166.674 157.615 166.677 157.615 165.523V154.493H175.687V165.523C175.687 166.674 177.1 166.677 177.1 165.523V154.493H195.172V165.523C195.172 166.674 196.585 166.677 196.585 165.523V154.493H214.656V165.523C214.656 166.674 216.069 166.677 216.069 165.523V154.493H234.141V165.523C234.141 166.674 235.555 166.677 235.555 165.523V154.493H239.826C240.736 154.493 240.738 152.705 239.826 152.705H235.555V131.14H239.826C240.736 131.14 240.738 129.352 239.826 129.352H235.555V107.779H239.826C240.736 107.779 240.738 105.991 239.826 105.991H235.555V84.3938H239.826C240.736 84.3938 240.738 82.6059 239.826 82.6059H235.555V61.0324H239.826C240.736 61.0324 240.738 59.2446 239.826 59.2446H235.555V37.6475H239.833ZM234.148 14.2733V35.8469H216.076V14.2733H234.148ZM199.144 14.2733H214.663V35.8469H196.591V14.2733H199.144ZM214.663 82.6038H196.591V61.0303H214.663V82.6038ZM196.591 129.35V107.777H214.663V129.35H196.591ZM177.107 129.35V107.777H195.178V129.35H177.107ZM167.332 129.35H157.622V107.777H175.694V129.35H167.332ZM138.129 129.35V107.777H156.201V129.35H138.129ZM118.645 129.35V107.777H136.716V129.35H118.645ZM99.16 129.35V107.777H117.232V129.35H99.16ZM95.1948 129.35H79.6821V107.777H97.7538V129.35H95.1948ZM79.6821 84.3938H97.7538V105.98H79.6821V84.3938ZM97.7538 37.6475V59.2339H79.6821V37.6475H97.7538ZM117.238 37.6475V59.2339H99.1667V37.6475H117.238ZM127.012 37.6475H136.723V59.2339H118.651V37.6475H127.012ZM156.214 37.6475V59.2339H138.139V37.6475H156.214ZM175.701 37.6475V59.2339H157.622V37.6475H175.701ZM195.185 37.6475V59.2339H177.107V37.6475H195.185ZM195.185 82.6059H177.107V61.0324H195.178V82.6059H195.185ZM99.1735 84.3938H117.245V105.98H99.1667V84.3938H99.1735ZM175.701 82.6059H157.622V61.0324H175.694V82.6059H175.701ZM156.201 65.6504V82.6059H138.139V61.0324H156.201V65.6504ZM136.716 65.6504V82.6059H118.651V61.0324H136.723L136.716 65.6504ZM117.232 65.6504V82.6059H99.1667V61.0324H117.238L117.232 65.6504ZM118.645 101.349V84.3938H136.716V105.98H118.651L118.645 101.349ZM138.129 101.349V84.3938H156.201V105.98H138.139L138.129 101.349ZM157.615 101.349V84.3938H175.687V105.98H157.622L157.615 101.349ZM177.1 101.349V84.3938H195.172V105.98H177.107L177.1 101.349ZM97.7471 61.0217V82.5953H79.6821V61.0217H97.7471ZM196.585 105.98V84.3938H214.656V105.98H196.585ZM196.585 59.2339V37.6475H214.656V59.2339H196.585ZM195.178 14.2733V35.8469H177.107V14.2733H195.178ZM175.694 14.2733V35.8469H157.622V14.2733H175.694ZM156.201 14.2733V35.8469H138.139V14.2733H156.201ZM126.998 14.2733H136.71V35.8469H118.651V14.2733H126.998ZM117.225 14.2733V35.8469H99.1667V14.2733H117.225ZM97.7403 14.2733V35.8469H79.6821V14.2733H97.7403ZM60.1823 14.2733H78.2676V35.8469H60.1958L60.1823 14.2733ZM60.1823 37.6454H78.2676V59.2339H60.1958L60.1823 37.6454ZM60.1823 61.0196H78.2676V82.5931H60.1958L60.1823 61.0196ZM60.1823 101.347V84.3938H78.2676V105.98H60.1958L60.1823 101.347ZM60.1823 107.755H78.2676V129.329H60.1958L60.1823 107.755ZM60.1823 152.714V131.14H78.2676V152.726L60.1823 152.714ZM95.1881 152.714H79.6821V131.14H97.7538V152.726L95.1881 152.714ZM99.1532 152.714V131.14H117.225V152.726L99.1532 152.714ZM118.638 152.714V131.14H136.71V152.726L118.638 152.714ZM138.122 152.714V131.14H156.201V152.726L138.122 152.714ZM167.325 152.714H157.615V131.14H175.687V152.726L167.325 152.714ZM177.1 152.714V131.14H195.172V152.726L177.1 152.714ZM196.585 152.714V131.14H214.656V152.726L196.585 152.714ZM234.141 152.714H216.076V131.14H234.148L234.141 152.714ZM234.141 129.339H216.076V107.766H234.148L234.141 129.339ZM234.141 105.967H216.076V84.3938H234.148L234.141 105.967ZM234.141 65.6376V82.5931H216.076V61.0196H234.148L234.141 65.6376ZM234.141 59.2296H216.076V37.6475H234.148L234.141 59.2296Z" fill="#002F6C"/>
<path d="M278.515 18.8081C279.283 30.3938 271.515 48.8039 268.387 60.0734C264.461 74.2351 260.175 88.2963 254.702 101.631C252.965 100.452 239.387 79.2889 239.436 79.2397L198.586 120.37L166.793 152.378C162.818 156.381 159.185 160.899 155.342 165.098C151.403 169.404 146.886 172.897 142.609 176.633C139.908 178.993 138.872 175.528 137.354 173.189C136.095 171.248 134.838 169.305 133.583 167.358C130.995 163.334 128.413 159.3 125.837 155.256C120.773 147.301 115.723 139.332 110.686 131.347C109.972 130.22 98.2247 112.337 98.4695 112.023L60.4135 151.904L33.1895 180.439C30.0987 183.679 27.0958 187.21 23.8599 190.22C15.2511 198.23 4.99819 174.725 1.17993 168.018C-1.73356 162.892 83.0479 78.7762 92.2053 69.1749C94.3997 66.8787 97.1258 62.7093 99.7422 61.2717C101.008 60.5797 101.396 58.5911 103.032 58.873C109.436 59.9987 117.242 78.5242 120.587 84.2914C126.436 94.401 134.917 107.591 141.181 117.312C146.311 125.26 144.273 125.888 150.44 120.191C159.288 112.019 167.657 102.853 176.234 94.2237C179.158 91.3017 220.345 49.6605 220.414 49.7715C215.63 42.3596 208.831 34.5034 205.641 26.0492C212.519 22.732 278.366 16.6337 278.515 18.8081Z" fill="#126BC5"/>
<mask id="mask0_98_1527" style="mask-type:luminance" maskUnits="userSpaceOnUse" x="1" y="18" width="278" height="174">
<path d="M278.515 18.8081C279.283 30.3938 271.515 48.8039 268.387 60.0734C264.461 74.2351 260.175 88.2963 254.702 101.631C252.965 100.452 239.387 79.2889 239.436 79.2397L198.586 120.37L166.793 152.378C162.818 156.381 159.185 160.899 155.342 165.098C151.403 169.404 146.886 172.897 142.609 176.633C139.908 178.993 138.872 175.528 137.354 173.189C136.095 171.248 134.838 169.305 133.583 167.358C130.995 163.334 128.413 159.3 125.837 155.256C120.773 147.301 115.723 139.332 110.686 131.347C109.972 130.22 98.2247 112.337 98.4695 112.023L60.4135 151.904L33.1895 180.439C30.0987 183.679 27.0958 187.21 23.8599 190.22C15.2511 198.23 4.99819 174.725 1.17993 168.018C-1.73356 162.892 83.0479 78.7762 92.2053 69.1749C94.3997 66.8787 97.1258 62.7093 99.7422 61.2717C101.008 60.5797 101.396 58.5911 103.032 58.873C109.436 59.9987 117.242 78.5242 120.587 84.2914C126.436 94.401 134.917 107.591 141.181 117.312C146.311 125.26 144.273 125.888 150.44 120.191C159.288 112.019 167.657 102.853 176.234 94.2237C179.158 91.3017 220.345 49.6605 220.414 49.7715C215.63 42.3596 208.831 34.5034 205.641 26.0492C212.519 22.732 278.366 16.6337 278.515 18.8081Z" fill="white"/>
</mask>
<g mask="url(#mask0_98_1527)">
<path d="M14.0273 193.4C14.0273 193.4 64.7906 141.049 67.8357 137.194C70.8809 133.338 94.3103 105.98 97.7538 105.98C101.197 105.98 139.402 170.541 140.567 170.026C141.731 169.511 237.466 70.5164 239.504 71.8129C241.541 73.1095 252.332 91.4107 253.151 90.3811C253.97 89.3516 271.28 40.0763 272.096 37.6476C272.911 35.219 277.708 12.9192 278.567 14.2756C279.427 15.6319 281.668 16.6636 281.464 19.4981C281.26 22.3326 257.633 108.4 254.78 107.768C251.927 107.136 239.831 84.3939 239.831 84.3939C239.831 84.3939 146.085 184.673 139.836 182.863C133.587 181.054 97.7521 118.551 97.7521 118.551C97.7521 118.551 24.5031 200.573 21.4208 199.078C18.3385 197.582 14.0273 193.4 14.0273 193.4Z" fill="#398101"/>
</g>
<path d="M150.134 211.772C216.874 211.772 270.978 207.315 270.978 201.818C270.978 196.321 216.874 191.864 150.134 191.864C83.3938 191.864 29.2902 196.321 29.2902 201.818C29.2902 207.315 83.3938 211.772 150.134 211.772Z" fill="#002F6C"/>
</g>
<defs>
<clipPath id="clip0_98_1527">
<rect width="279" height="212" fill="white" transform="translate(0.5 0.210449)"/>
</clipPath>
</defs>
</svg>
