<svg width="300" height="316" viewBox="0 0 300 316" fill="none" xmlns="http://www.w3.org/2000/svg">
<g clip-path="url(#clip0_87_738)">
<path opacity="0.18" d="M45.6242 81.0714C40.3319 101.023 19.2107 120.287 15.2945 140.551C11.664 159.327 23.9949 177.776 38.9983 189.641C54.0017 201.506 71.9847 209.185 86.7765 221.305C101.383 233.281 112.301 249.115 125.849 262.282C139.397 275.449 157.285 286.325 176.067 284.309C208.439 280.826 224.184 244.167 247.575 221.522C267.273 202.47 297.206 188.223 299.825 160.931C301.413 144.414 291.749 129.125 282.292 115.492C263.875 88.9092 228.285 87.5597 198.781 73.4824C168.785 59.1828 66.539 2.22796 45.6242 81.0714Z" fill="#68ACFD"/>
<path d="M268.173 258.107C268.173 267.024 244.516 274.258 215.34 274.258C186.164 274.258 162.508 267.024 162.508 258.107C162.508 257.249 162.09 249.232 162.508 248.411C166.456 240.685 188.969 241.95 215.34 241.95C240.87 241.95 263.246 241.05 268.173 248.411C268.876 249.464 268.173 256.99 268.173 258.107Z" fill="#68ACFD"/>
<path d="M268.173 258.107C268.173 267.024 244.516 274.258 215.34 274.258C186.164 274.258 162.508 267.024 162.508 258.107C162.508 257.249 162.09 249.232 162.508 248.411C166.456 240.685 188.969 241.95 215.34 241.95C240.87 241.95 263.246 241.05 268.173 248.411C268.876 249.464 268.173 256.99 268.173 258.107Z" fill="url(#paint0_linear_87_738)"/>
<path d="M215.34 264.563C244.519 264.563 268.173 257.332 268.173 248.412C268.173 239.491 244.519 232.26 215.34 232.26C186.162 232.26 162.508 239.491 162.508 248.412C162.508 257.332 186.162 264.563 215.34 264.563Z" fill="#68ACFD"/>
<path d="M257.424 245.76C257.415 246.445 257.233 247.117 256.895 247.713C253.72 253.603 236.313 258.101 215.33 258.101C194.346 258.101 176.956 253.603 173.765 247.713C173.429 247.116 173.247 246.445 173.235 245.76C173.235 238.938 192.081 233.413 215.319 233.413C238.557 233.413 257.424 238.938 257.424 245.76Z" fill="url(#paint1_linear_87_738)"/>
<path d="M256.905 247.713C253.73 253.603 236.324 258.101 215.34 258.101C194.357 258.101 176.966 253.603 173.775 247.713C176.951 241.822 194.357 237.313 215.34 237.313C236.324 237.313 253.72 241.822 256.905 247.713Z" fill="#68ACFD"/>
<path d="M256.905 247.713C253.73 253.603 236.324 258.101 215.34 258.101C194.357 258.101 176.966 253.603 173.775 247.713C176.951 241.822 194.357 237.313 215.34 237.313C236.324 237.313 253.72 241.822 256.905 247.713Z" fill="url(#paint2_linear_87_738)"/>
<path d="M277.55 234.477C277.55 243.4 253.894 250.629 224.718 250.629C195.542 250.629 171.886 243.4 171.886 234.477C171.886 233.62 171.468 225.602 171.886 224.782C175.834 217.055 198.347 218.325 224.718 218.325C250.248 218.325 272.623 217.426 277.55 224.782C278.254 225.835 277.55 233.387 277.55 234.477Z" fill="#68ACFD"/>
<path d="M277.55 234.477C277.55 243.4 253.894 250.629 224.718 250.629C195.542 250.629 171.886 243.4 171.886 234.477C171.886 233.62 171.468 225.602 171.886 224.782C175.834 217.055 198.347 218.325 224.718 218.325C250.248 218.325 272.623 217.426 277.55 224.782C278.254 225.835 277.55 233.387 277.55 234.477Z" fill="url(#paint3_linear_87_738)"/>
<path d="M224.718 240.934C253.897 240.934 277.55 233.702 277.55 224.782C277.55 215.861 253.897 208.63 224.718 208.63C195.54 208.63 171.886 215.861 171.886 224.782C171.886 233.702 195.54 240.934 224.718 240.934Z" fill="#68ACFD"/>
<path d="M224.718 240.934C253.897 240.934 277.55 233.702 277.55 224.782C277.55 215.861 253.897 208.63 224.718 208.63C195.54 208.63 171.886 215.861 171.886 224.782C171.886 233.702 195.54 240.934 224.718 240.934Z" fill="url(#paint4_linear_87_738)"/>
<path d="M266.802 222.136C266.791 222.819 266.609 223.488 266.273 224.083C263.097 229.974 245.686 234.477 224.702 234.477C203.719 234.477 186.334 229.974 183.143 224.083C182.804 223.489 182.622 222.819 182.613 222.136C182.613 215.314 201.454 209.784 224.692 209.784C247.93 209.784 266.802 215.314 266.802 222.136Z" fill="url(#paint5_linear_87_738)"/>
<path d="M266.283 224.083C263.108 229.974 245.697 234.477 224.713 234.477C203.729 234.477 186.344 229.974 183.153 224.083C186.328 218.193 203.735 213.689 224.713 213.689C245.691 213.689 263.097 218.193 266.283 224.083Z" fill="url(#paint6_linear_87_738)"/>
<path d="M261.997 213.477C261.997 222.4 238.346 229.629 209.17 229.629C179.994 229.629 156.337 222.4 156.337 213.477C156.337 212.625 155.919 204.602 156.337 203.787C160.285 196.061 182.799 197.325 209.17 197.325C234.699 197.325 257.075 196.426 261.997 203.787C262.7 204.835 261.997 212.361 261.997 213.477Z" fill="#68ACFD"/>
<path d="M261.997 213.477C261.997 222.4 238.346 229.629 209.17 229.629C179.994 229.629 156.337 222.4 156.337 213.477C156.337 212.625 155.919 204.602 156.337 203.787C160.285 196.061 182.799 197.325 209.17 197.325C234.699 197.325 257.075 196.426 261.997 203.787C262.7 204.835 261.997 212.361 261.997 213.477Z" fill="url(#paint7_linear_87_738)"/>
<path d="M209.17 219.939C238.348 219.939 262.002 212.708 262.002 203.788C262.002 194.867 238.348 187.636 209.17 187.636C179.991 187.636 156.337 194.867 156.337 203.788C156.337 212.708 179.991 219.939 209.17 219.939Z" fill="#68ACFD"/>
<path d="M251.253 201.136C251.243 201.82 251.061 202.489 250.724 203.084C247.549 208.974 230.137 213.478 209.154 213.478C188.17 213.478 170.785 208.974 167.594 203.084C167.255 202.49 167.073 201.82 167.065 201.136C167.065 194.315 185.91 188.79 209.148 188.79C232.387 188.79 251.253 194.315 251.253 201.136Z" fill="url(#paint8_linear_87_738)"/>
<path d="M250.735 203.083C247.559 208.974 230.148 213.477 209.164 213.477C188.181 213.477 170.796 208.974 167.604 203.083C170.78 197.193 188.181 192.689 209.164 192.689C230.148 192.689 247.549 197.193 250.735 203.083Z" fill="url(#paint9_linear_87_738)"/>
<path d="M271.47 191.166C271.47 200.083 247.813 207.317 218.637 207.317C189.461 207.317 165.805 200.083 165.805 191.166C165.805 190.308 165.387 182.291 165.805 181.47C169.753 173.744 192.266 175.014 218.637 175.014C244.167 175.014 266.543 174.114 271.47 181.47C272.174 182.523 271.47 190.049 271.47 191.166Z" fill="#68ACFD"/>
<path d="M271.47 191.166C271.47 200.083 247.813 207.317 218.637 207.317C189.461 207.317 165.805 200.083 165.805 191.166C165.805 190.308 165.387 182.291 165.805 181.47C169.753 173.744 192.266 175.014 218.637 175.014C244.167 175.014 266.543 174.114 271.47 181.47C272.173 182.523 271.47 190.049 271.47 191.166Z" fill="url(#paint10_linear_87_738)"/>
<path d="M218.637 197.622C247.816 197.622 271.47 190.391 271.47 181.47C271.47 172.55 247.816 165.318 218.637 165.318C189.459 165.318 165.805 172.55 165.805 181.47C165.805 190.391 189.459 197.622 218.637 197.622Z" fill="#68ACFD"/>
<path d="M218.637 197.622C247.816 197.622 271.47 190.391 271.47 181.47C271.47 172.55 247.816 165.318 218.637 165.318C189.459 165.318 165.805 172.55 165.805 181.47C165.805 190.391 189.459 197.622 218.637 197.622Z" fill="url(#paint11_linear_87_738)"/>
<path d="M260.7 178.819C260.691 179.504 260.509 180.176 260.171 180.772C256.995 186.662 239.584 191.166 218.606 191.166C197.627 191.166 180.258 186.662 177.083 180.772C176.745 180.176 176.562 179.504 176.554 178.819C176.554 172.003 195.394 166.472 218.637 166.472C241.881 166.472 260.7 171.997 260.7 178.819Z" fill="url(#paint12_linear_87_738)"/>
<path d="M260.202 180.772C257.027 186.662 239.616 191.166 218.637 191.166C197.659 191.166 180.258 186.662 177.083 180.772C180.258 174.882 197.664 170.378 218.648 170.378C239.632 170.378 256.995 174.882 260.202 180.772Z" fill="url(#paint13_linear_87_738)"/>
<path d="M271.47 168.854C271.47 177.771 247.813 185.005 218.637 185.005C189.461 185.005 165.805 177.771 165.805 168.854C165.805 167.996 165.387 159.979 165.805 159.158C169.753 151.432 192.266 152.702 218.637 152.702C244.167 152.702 266.543 151.797 271.47 159.158C272.174 160.211 271.47 167.763 271.47 168.854Z" fill="#68ACFD"/>
<path d="M271.47 168.854C271.47 177.771 247.813 185.005 218.637 185.005C189.461 185.005 165.805 177.771 165.805 168.854C165.805 167.996 165.387 159.979 165.805 159.158C169.753 151.432 192.266 152.702 218.637 152.702C244.167 152.702 266.543 151.797 271.47 159.158C272.173 160.211 271.47 167.763 271.47 168.854Z" fill="url(#paint14_linear_87_738)"/>
<path d="M218.637 175.31C247.816 175.31 271.47 168.079 271.47 159.158C271.47 150.238 247.816 143.006 218.637 143.006C189.459 143.006 165.805 150.238 165.805 159.158C165.805 168.079 189.459 175.31 218.637 175.31Z" fill="#68ACFD"/>
<path d="M218.637 175.31C247.816 175.31 271.47 168.079 271.47 159.158C271.47 150.238 247.816 143.006 218.637 143.006C189.459 143.006 165.805 150.238 165.805 159.158C165.805 168.079 189.459 175.31 218.637 175.31Z" fill="url(#paint15_linear_87_738)"/>
<path d="M260.7 156.507C260.691 157.192 260.509 157.864 260.171 158.46C256.995 164.35 239.584 168.848 218.606 168.848C197.627 168.848 180.258 164.35 177.083 158.46C176.745 157.864 176.562 157.192 176.554 156.507C176.554 149.685 195.394 144.16 218.637 144.16C241.881 144.16 260.7 149.685 260.7 156.507Z" fill="url(#paint16_linear_87_738)"/>
<path d="M260.202 158.46C257.027 164.35 239.616 168.848 218.637 168.848C197.659 168.848 180.258 164.35 177.083 158.46C180.258 152.57 197.664 148.061 218.648 148.061C239.632 148.061 256.995 152.57 260.202 158.46Z" fill="url(#paint17_linear_87_738)"/>
<path d="M257.345 145.144C257.345 154.062 233.689 161.296 204.513 161.296C175.337 161.296 151.68 154.062 151.68 145.144C151.68 144.287 151.262 136.269 151.68 135.449C155.628 127.722 178.141 128.987 204.513 128.987C230.042 128.987 252.418 128.087 257.345 135.449C258.054 136.502 257.345 144.028 257.345 145.144Z" fill="#68ACFD"/>
<path d="M257.345 145.144C257.345 154.062 233.689 161.296 204.513 161.296C175.337 161.296 151.68 154.062 151.68 145.144C151.68 144.287 151.262 136.269 151.68 135.449C155.628 127.722 178.141 128.987 204.513 128.987C230.042 128.987 252.418 128.087 257.345 135.449C258.054 136.502 257.345 144.028 257.345 145.144Z" fill="url(#paint18_linear_87_738)"/>
<path d="M204.513 151.601C233.691 151.601 257.345 144.37 257.345 135.449C257.345 126.529 233.691 119.297 204.513 119.297C175.334 119.297 151.68 126.529 151.68 135.449C151.68 144.37 175.334 151.601 204.513 151.601Z" fill="#68ACFD"/>
<path d="M246.601 132.797C246.592 133.483 246.41 134.154 246.072 134.75C242.897 140.64 225.491 145.139 204.507 145.139C183.524 145.139 166.133 140.64 162.942 134.75C162.606 134.153 162.424 133.482 162.413 132.797C162.413 125.976 181.258 120.451 204.497 120.451C227.735 120.451 246.601 125.955 246.601 132.797Z" fill="url(#paint19_linear_87_738)"/>
<path d="M246.078 134.75C242.902 140.641 225.496 145.139 204.512 145.139C183.529 145.139 166.139 140.641 162.947 134.75C166.123 128.86 183.529 124.351 204.512 124.351C225.496 124.351 242.892 128.86 246.078 134.75Z" fill="#68ACFD"/>
<path d="M246.078 134.75C242.902 140.641 225.496 145.139 204.512 145.139C183.529 145.139 166.139 140.641 162.947 134.75C166.123 128.86 183.529 124.351 204.512 124.351C225.496 124.351 242.892 128.86 246.078 134.75Z" fill="url(#paint20_linear_87_738)"/>
<path opacity="0.19" d="M225.359 122.102C227.015 122.928 228.37 124.658 228.169 126.505C228.058 127.564 227.444 128.575 227.491 129.649C227.534 130.808 228.327 131.792 228.714 132.883C229.608 135.412 228.185 138.334 225.925 139.805C224.768 140.506 223.522 141.049 222.22 141.419C215.205 143.675 207.952 145.116 200.607 145.711C196.712 146.023 192.764 146.103 188.996 147.134C186.598 147.791 184.312 148.823 181.909 149.484C181.328 149.69 180.704 149.748 180.094 149.654C178.888 149.373 178.178 147.987 178.311 146.748C178.528 145.514 179.163 144.393 180.11 143.573C182.052 141.684 184.566 140.535 186.836 139.053C189.747 137.159 192.256 134.719 194.912 132.47C197.23 130.512 199.675 128.691 202.105 126.876C205.084 124.653 208.095 122.415 211.435 120.79C214.774 119.165 220.844 120.261 220.262 120.261C220.416 121.658 224.184 121.51 225.359 122.102Z" fill="url(#paint21_linear_87_738)"/>
<path d="M176.554 105.247C176.554 105.247 131.644 101.473 130.374 125.452L126.955 131.057L151.68 145.145C151.68 145.145 149.622 139.249 155.253 136.381C160.883 133.512 183.608 132.115 187.128 125.452C190.647 118.789 176.554 105.247 176.554 105.247Z" fill="#23233A"/>
<path d="M184.312 111.163C184.312 111.163 155.586 122.478 153.141 134.745C150.696 147.013 151.68 145.144 151.68 145.144L162.265 152.622L177.776 150.003C177.776 150.003 180.951 143.006 191.081 141.133C201.21 139.259 215.573 136.195 218.68 128.188C221.786 120.181 221.273 111.163 221.273 111.163H184.312Z" fill="#3D3D56"/>
<path opacity="0.19" d="M98.6841 315.945C152.397 315.945 195.939 307.306 195.939 296.65C195.939 285.993 152.397 277.354 98.6841 277.354C44.9715 277.354 1.42896 285.993 1.42896 296.65C1.42896 307.306 44.9715 315.945 98.6841 315.945Z" fill="url(#paint22_linear_87_738)"/>
<path d="M171.314 295.046L162.931 297.497C161.062 298.04 159.098 298.184 157.169 297.92C155.24 297.656 153.388 296.989 151.733 295.963C150.077 294.937 148.656 293.575 147.562 291.965C146.467 290.355 145.723 288.532 145.377 286.616L138.915 251.661L171.351 239.282L180.009 280.413C180.667 283.499 180.137 286.719 178.526 289.432C176.914 292.144 174.339 294.149 171.314 295.046Z" fill="#68ACFD"/>
<path d="M171.314 295.046L163.117 243.828L171.621 240.558L180.009 280.413C180.667 283.499 180.137 286.719 178.526 289.432C176.914 292.144 174.339 294.149 171.314 295.046Z" fill="url(#paint23_linear_87_738)"/>
<path d="M73.7788 289.643L65.0731 290.31C63.129 290.452 61.1768 290.185 59.3423 289.526C57.5078 288.867 55.8317 287.831 54.4221 286.485C53.0125 285.139 51.9006 283.512 51.1583 281.71C50.4159 279.907 50.0595 277.969 50.112 276.021L50.9323 240.478L85.1994 235.085L85.2735 277.127C85.2889 280.278 84.1131 283.319 81.9815 285.64C79.8499 287.961 76.92 289.391 73.7788 289.643Z" fill="#68ACFD"/>
<path d="M73.7788 289.643L76.2132 237.827L85.21 236.382L85.2788 277.132C85.2928 280.284 84.1156 283.324 81.983 285.644C79.8505 287.964 76.92 289.392 73.7788 289.643Z" fill="url(#paint24_linear_87_738)"/>
<path d="M195.669 189.308C189.62 228.121 148.293 258.149 98.2289 258.149C48.1645 258.149 6.80584 228.121 0.756836 189.308C6.80584 150.506 48.1275 120.478 98.2289 120.478C148.33 120.478 189.62 150.506 195.669 189.308Z" fill="#68ACFD"/>
<path d="M195.669 189.308C189.62 228.121 148.293 258.149 98.2289 258.149C48.1645 258.149 6.80584 228.121 0.756836 189.308C6.80584 150.506 48.1275 120.478 98.2289 120.478C148.33 120.478 189.62 150.506 195.669 189.308Z" fill="url(#paint25_linear_87_738)"/>
<path d="M197.458 146.632C197.458 146.632 201.988 129.644 219.844 131.152C237.7 132.66 235.668 157.856 219.844 171.373C219.844 171.394 202.38 149.823 197.458 146.632Z" fill="url(#paint26_linear_87_738)"/>
<path d="M197.458 146.632C197.458 146.632 201.988 129.644 219.844 131.152C237.7 132.66 235.668 157.856 219.844 171.373C219.844 171.394 202.38 149.823 197.458 146.632Z" fill="url(#paint27_linear_87_738)"/>
<path d="M206.497 151.146C206.497 151.146 209.672 139.307 222.093 140.36C234.514 141.413 233.117 158.968 222.093 168.409C222.093 168.398 209.926 153.369 206.497 151.146Z" fill="#68ACFD"/>
<path d="M206.497 151.146C206.497 151.146 209.672 139.307 222.093 140.36C234.514 141.413 233.117 158.968 222.093 168.409C222.093 168.398 209.926 153.369 206.497 151.146Z" fill="url(#paint28_linear_87_738)"/>
<path d="M196.431 199.157C196.431 242.606 152.453 277.842 98.2289 277.842C44.0048 277.842 1.50993e-05 242.606 1.50993e-05 199.157C-0.00225193 195.859 0.250767 192.567 0.756802 189.308C6.80581 228.121 48.1274 258.149 98.2289 258.149C148.33 258.149 189.636 228.121 195.685 189.308C196.188 192.567 196.437 195.86 196.431 199.157Z" fill="url(#paint29_linear_87_738)"/>
<path d="M196.431 199.157C196.431 242.606 152.458 277.842 98.2289 277.842C43.9995 277.842 0 242.606 0 199.157C0.000374192 195.861 0.253378 192.57 0.756787 189.313C6.80579 228.121 48.1274 258.155 98.2289 258.155C110.263 258.187 122.233 256.403 133.734 252.862C138.254 249.687 132.374 233.408 132.247 233.038L140.789 237.478L148.971 246.861C174.109 234.689 191.88 213.742 195.685 189.324C196.187 192.578 196.437 195.865 196.431 199.157Z" fill="url(#paint30_linear_87_738)"/>
<path d="M255.133 208.429C255.141 217.311 253.208 226.087 249.47 234.144C239.415 255.842 217.071 270.898 191.102 270.898C182.427 270.926 173.836 269.207 165.84 265.843C157.844 262.479 150.608 257.538 144.562 251.317C133.355 239.847 127.076 224.45 127.066 208.413C127.066 173.908 155.739 145.965 191.102 145.965C226.465 145.965 255.133 173.924 255.133 208.429Z" fill="#68ACFD"/>
<path d="M255.133 208.429C255.141 217.311 253.208 226.087 249.47 234.144C239.415 255.842 217.071 270.898 191.102 270.898C182.427 270.926 173.836 269.207 165.84 265.843C157.844 262.479 150.608 257.538 144.562 251.317C133.355 239.847 127.076 224.45 127.066 208.413C127.066 173.908 155.739 145.965 191.102 145.965C226.465 145.965 255.133 173.924 255.133 208.429Z" fill="url(#paint31_linear_87_738)"/>
<path d="M204.576 200.888C207.145 200.888 209.228 198.788 209.228 196.199C209.228 193.609 207.145 191.51 204.576 191.51C202.007 191.51 199.924 193.609 199.924 196.199C199.924 198.788 202.007 200.888 204.576 200.888Z" fill="#68ACFD"/>
<path d="M234.556 196.987C237.126 196.987 239.208 194.888 239.208 192.298C239.208 189.709 237.126 187.609 234.556 187.609C231.987 187.609 229.905 189.709 229.905 192.298C229.905 194.888 231.987 196.987 234.556 196.987Z" fill="#68ACFD"/>
<path d="M204.576 200.888C207.145 200.888 209.228 198.788 209.228 196.199C209.228 193.609 207.145 191.51 204.576 191.51C202.007 191.51 199.924 193.609 199.924 196.199C199.924 198.788 202.007 200.888 204.576 200.888Z" fill="url(#paint32_linear_87_738)"/>
<path d="M234.556 196.987C237.126 196.987 239.208 194.888 239.208 192.298C239.208 189.709 237.126 187.609 234.556 187.609C231.987 187.609 229.905 189.709 229.905 192.298C229.905 194.888 231.987 196.987 234.556 196.987Z" fill="url(#paint33_linear_87_738)"/>
<path d="M241.013 203.92L245.977 230.789C244.204 231.658 242.32 232.281 240.378 232.641C230.661 234.445 221.606 229.577 220.156 221.744C218.706 213.912 225.406 206.063 235.123 204.243C237.062 203.867 239.044 203.758 241.013 203.92Z" fill="#68ACFD"/>
<path d="M241.013 203.92L245.977 230.789C244.204 231.658 242.32 232.281 240.378 232.641C230.661 234.445 221.606 229.577 220.156 221.744C218.706 213.912 225.406 206.063 235.123 204.243C237.062 203.867 239.044 203.758 241.013 203.92Z" fill="url(#paint34_linear_87_738)"/>
<path d="M245.616 230.919C249.552 230.196 251.633 223.577 250.266 216.134C248.899 208.692 244.6 203.244 240.665 203.967C236.729 204.69 234.647 211.31 236.015 218.752C237.382 226.195 241.681 231.642 245.616 230.919Z" fill="#68ACFD"/>
<path d="M245.616 230.919C249.552 230.196 251.633 223.577 250.266 216.134C248.899 208.692 244.6 203.244 240.665 203.967C236.729 204.69 234.647 211.31 236.015 218.752C237.382 226.195 241.681 231.642 245.616 230.919Z" fill="url(#paint35_linear_87_738)"/>
<path d="M242.627 216.637C243.373 219.251 243.564 221.49 243.05 221.638C242.537 221.786 241.51 219.791 240.764 217.177C240.018 214.563 239.827 212.329 240.341 212.181C240.854 212.033 241.881 214.028 242.627 216.637Z" fill="url(#paint36_linear_87_738)"/>
<path d="M247.755 215.033C248.523 217.679 248.724 219.987 248.21 220.14C247.697 220.294 246.66 218.246 245.898 215.573C245.136 212.9 244.929 210.614 245.442 210.466C245.956 210.318 246.993 212.361 247.755 215.033Z" fill="url(#paint37_linear_87_738)"/>
<path d="M249.555 233.021L249.47 234.143C239.415 255.842 217.071 270.898 191.102 270.898C182.427 270.926 173.836 269.207 165.84 265.842C157.844 262.478 150.608 257.538 144.562 251.317C144.562 251.317 149.458 244.257 185.365 250.311C221.273 256.365 249.555 233.021 249.555 233.021Z" fill="url(#paint38_linear_87_738)"/>
<path d="M163.418 161.148C163.418 161.148 158.894 144.16 141.032 145.674C123.171 147.187 125.209 172.378 141.032 185.894C141.032 185.916 158.497 164.345 163.418 161.148Z" fill="url(#paint39_linear_87_738)"/>
<path d="M163.418 161.148C163.418 161.148 158.894 144.16 141.032 145.674C123.171 147.187 125.209 172.378 141.032 185.894C141.032 185.916 158.497 164.345 163.418 161.148Z" fill="url(#paint40_linear_87_738)"/>
<path d="M161.339 163.403C161.339 163.403 158.163 151.569 145.742 152.622C133.322 153.676 134.719 171.225 145.742 180.671C145.742 180.661 157.909 165.647 161.339 163.403Z" fill="#68ACFD"/>
<path d="M161.339 163.403C161.339 163.403 158.163 151.569 145.742 152.622C133.322 153.676 134.719 171.225 145.742 180.671C145.742 180.661 157.909 165.647 161.339 163.403Z" fill="url(#paint41_linear_87_738)"/>
<path d="M133.687 141.869L129.114 143.911L124.558 145.954C97.9113 130.078 74.0487 130.353 61.5167 132.136C58.3999 132.54 55.3229 133.207 52.3188 134.131L65.6076 128.839C65.6076 128.839 73.2866 125.637 93.8892 126.833C120.022 128.336 133.687 141.869 133.687 141.869Z" fill="#23233A"/>
<path d="M133.687 141.869L129.114 143.911L118.001 136.254C100.25 125.479 67.8991 129.982 67.8991 129.982L61.4902 132.136C58.3734 132.54 55.2964 133.207 52.2924 134.131L65.5811 128.839C65.5811 128.839 73.2601 125.637 93.8627 126.833C120.022 128.336 133.687 141.869 133.687 141.869Z" fill="#68ACFD"/>
<path d="M133.687 141.869L129.114 143.911L118.001 136.254C100.25 125.479 67.8991 129.982 67.8991 129.982L61.4902 132.136C58.3734 132.54 55.2964 133.207 52.2924 134.131L65.5811 128.839C65.5811 128.839 73.2601 125.637 93.8627 126.833C120.022 128.336 133.687 141.869 133.687 141.869Z" fill="url(#paint42_linear_87_738)"/>
<path d="M122.187 306.769L113.497 307.642C111.559 307.827 109.605 307.604 107.758 306.987C105.912 306.371 104.215 305.375 102.777 304.064C101.339 302.752 100.191 301.154 99.408 299.372C98.6247 297.59 98.223 295.664 98.2288 293.718V258.149L132.364 251.957L133.422 293.988C133.51 297.144 132.401 300.216 130.316 302.587C128.232 304.958 125.328 306.452 122.187 306.769ZM35.5743 297.528L26.8897 298.396C24.95 298.583 22.9926 298.362 21.1437 297.746C19.2949 297.13 17.5956 296.134 16.1556 294.821C14.7155 293.508 13.5666 291.908 12.7829 290.124C11.9993 288.339 11.5983 286.411 11.6058 284.462V215.303L45.7406 242.717L45.82 246.025L46.7779 284.742C46.8656 287.893 45.7602 290.961 43.6828 293.332C41.6054 295.703 38.7094 297.202 35.5743 297.528Z" fill="#68ACFD"/>
<path d="M35.5743 297.529C35.5743 297.529 37.5854 254.132 40.3373 249.327C43.0893 244.522 45.836 246.025 45.836 246.025L46.7938 284.743C46.8812 287.896 45.7736 290.966 43.6929 293.337C41.6123 295.708 38.7123 297.206 35.5743 297.529Z" fill="url(#paint43_linear_87_738)"/>
<path d="M122.187 306.769L123.425 254.905L132.38 253.254L133.39 294.004C133.475 297.152 132.368 300.216 130.291 302.583C128.214 304.949 125.319 306.444 122.187 306.769Z" fill="url(#paint44_linear_87_738)"/>
<path d="M105.352 75.1495C103.892 75.8534 102.33 76.8377 101.986 78.4307C103.261 78.4401 104.534 78.3105 105.781 78.0444L102.463 81.4684C102.26 81.6285 102.126 81.8591 102.087 82.1141C102.087 82.6698 102.844 82.8338 103.394 82.7862C105.242 82.6422 107.072 82.3269 108.861 81.8442C108.988 82.7174 107.649 83.0667 107.353 83.8976C107.088 84.6279 107.797 85.4059 108.554 85.554C109.327 85.6147 110.105 85.5101 110.835 85.2471C113.317 84.6491 115.915 84.9984 118.466 85.0672C121.017 85.1359 123.759 84.8396 125.733 83.2096C126.194 82.8643 126.549 82.3968 126.759 81.8601C126.896 81.3063 126.925 80.7312 126.844 80.1666C126.743 78.5789 127.807 75.2501 127.283 73.9217C126.786 72.6781 124.505 71.8048 123.319 71.609C116.021 70.3865 108.035 73.8794 105.352 75.1495Z" fill="url(#paint45_linear_87_738)"/>
<path d="M151.505 93.8635C157.105 74.9216 150.097 56.1523 135.853 51.9411C121.609 47.7299 105.522 59.6714 99.9217 78.6133C94.3216 97.5552 101.329 116.325 115.573 120.536C129.818 124.747 145.905 112.805 151.505 93.8635Z" fill="#68ACFD"/>
<path d="M151.505 93.8635C157.105 74.9216 150.097 56.1523 135.853 51.9411C121.609 47.7299 105.522 59.6714 99.9217 78.6133C94.3216 97.5552 101.329 116.325 115.573 120.536C129.818 124.747 145.905 112.805 151.505 93.8635Z" fill="url(#paint46_linear_87_738)"/>
<path d="M146.31 91.4126C151.91 72.4707 144.88 53.6947 130.608 49.4751C116.335 45.2556 100.226 57.1905 94.6256 76.1324C89.0256 95.0742 96.0558 113.85 110.328 118.07C124.6 122.289 140.71 110.354 146.31 91.4126Z" fill="#68ACFD"/>
<path d="M146.31 91.4126C151.91 72.4707 144.88 53.6947 130.608 49.4751C116.335 45.2556 100.226 57.1905 94.6256 76.1324C89.0256 95.0742 96.0558 113.85 110.328 118.07C124.6 122.289 140.71 110.354 146.31 91.4126Z" fill="url(#paint47_linear_87_738)"/>
<path d="M146.31 91.4126C151.91 72.4707 144.88 53.6947 130.608 49.4751C116.335 45.2556 100.226 57.1905 94.6256 76.1324C89.0256 95.0742 96.0558 113.85 110.328 118.07C124.6 122.289 140.71 110.354 146.31 91.4126Z" fill="url(#paint48_linear_87_738)"/>
<path d="M138.085 89.1424C133.258 105.178 120.557 115.487 109.718 112.174C109.337 112.058 108.961 111.925 108.596 111.782C98.5411 107.755 94.1909 92.6193 98.8374 77.1608C103.664 61.1359 116.365 50.8214 127.204 54.129C128.813 54.6221 130.323 55.3941 131.665 56.41C139.286 62.1573 142.181 75.5255 138.085 89.1424Z" fill="url(#paint49_linear_87_738)"/>
<path d="M138.085 89.142C133.258 105.177 120.557 115.487 109.718 112.174C109.337 112.057 108.961 111.925 108.596 111.782C100.981 106.035 98.0806 92.6666 102.177 79.0497C107.009 63.0196 119.705 52.7051 130.543 56.018C130.924 56.1344 131.3 56.2667 131.665 56.4096C139.286 62.157 142.181 75.5251 138.085 89.142Z" fill="#68ACFD"/>
<path d="M138.085 89.142C133.258 105.177 120.557 115.487 109.718 112.174C109.337 112.057 108.961 111.925 108.596 111.782C100.981 106.035 98.0806 92.6666 102.177 79.0497C107.009 63.0196 119.705 52.7051 130.543 56.018C130.924 56.1344 131.3 56.2667 131.665 56.4096C139.286 62.157 142.181 75.5251 138.085 89.142Z" fill="url(#paint50_linear_87_738)"/>
<path d="M206.555 30.6578C206.588 30.2598 206.727 29.8778 206.957 29.5517C207.099 29.417 207.266 29.3125 207.45 29.2448C207.747 29.0965 208.075 29.0204 208.408 29.0225C208.577 29.0291 208.742 29.0818 208.883 29.1751C209.025 29.2684 209.139 29.3986 209.212 29.5517C209.272 29.7212 209.294 29.902 209.275 30.0809C209.215 30.8112 208.934 31.506 208.47 32.073C208.006 32.6401 207.381 33.0528 206.677 33.2563C206.546 33.2984 206.406 33.2984 206.275 33.2563C206.197 33.22 206.128 33.1684 206.071 33.1048C206.013 33.0412 205.969 32.9667 205.941 32.8858C205.836 32.6945 205.778 32.4808 205.773 32.2626C205.767 32.0443 205.814 31.8279 205.91 31.6316C206.153 31.2664 206.449 31.1341 206.555 30.6578Z" fill="url(#paint51_linear_87_738)"/>
</g>
<defs>
<linearGradient id="paint0_linear_87_738" x1="172.833" y1="258.064" x2="278.99" y2="258.064" gradientUnits="userSpaceOnUse">
<stop/>
<stop offset="1" stop-opacity="0"/>
</linearGradient>
<linearGradient id="paint1_linear_87_738" x1="215.568" y1="225.295" x2="215.393" y2="241.256" gradientUnits="userSpaceOnUse">
<stop stop-color="#68ACFD"/>
<stop offset="1" stop-color="#696BEB"/>
</linearGradient>
<linearGradient id="paint2_linear_87_738" x1="220.59" y1="265.913" x2="217.087" y2="253.772" gradientUnits="userSpaceOnUse">
<stop/>
<stop offset="0.84" stop-opacity="0"/>
</linearGradient>
<linearGradient id="paint3_linear_87_738" x1="182.095" y1="234.44" x2="288.257" y2="234.44" gradientUnits="userSpaceOnUse">
<stop/>
<stop offset="1" stop-opacity="0"/>
</linearGradient>
<linearGradient id="paint4_linear_87_738" x1="236.488" y1="240.775" x2="247.596" y2="255.863" gradientUnits="userSpaceOnUse">
<stop offset="0.32" stop-color="#53D86A" stop-opacity="0"/>
<stop offset="1" stop-color="#53D86A"/>
</linearGradient>
<linearGradient id="paint5_linear_87_738" x1="246.972" y1="192.176" x2="234.832" y2="208.519" gradientUnits="userSpaceOnUse">
<stop/>
<stop offset="1" stop-opacity="0"/>
</linearGradient>
<linearGradient id="paint6_linear_87_738" x1="251.703" y1="193.553" x2="222.326" y2="226.788" gradientUnits="userSpaceOnUse">
<stop/>
<stop offset="0.84" stop-opacity="0"/>
</linearGradient>
<linearGradient id="paint7_linear_87_738" x1="243.003" y1="220.881" x2="257.244" y2="225.036" gradientUnits="userSpaceOnUse">
<stop/>
<stop offset="1" stop-opacity="0"/>
</linearGradient>
<linearGradient id="paint8_linear_87_738" x1="209.397" y1="180.666" x2="209.217" y2="196.627" gradientUnits="userSpaceOnUse">
<stop stop-color="#68ACFD"/>
<stop offset="1" stop-color="#696BEB"/>
</linearGradient>
<linearGradient id="paint9_linear_87_738" x1="167.604" y1="203.083" x2="250.735" y2="203.083" gradientUnits="userSpaceOnUse">
<stop stop-color="#68ACFD"/>
<stop offset="1" stop-color="#696BEB"/>
</linearGradient>
<linearGradient id="paint10_linear_87_738" x1="178.496" y1="191.129" x2="284.653" y2="191.129" gradientUnits="userSpaceOnUse">
<stop/>
<stop offset="1" stop-opacity="0"/>
</linearGradient>
<linearGradient id="paint11_linear_87_738" x1="230.624" y1="195.717" x2="245.083" y2="212.901" gradientUnits="userSpaceOnUse">
<stop offset="0.32" stop-color="#53D86A" stop-opacity="0"/>
<stop offset="1" stop-color="#53D86A"/>
</linearGradient>
<linearGradient id="paint12_linear_87_738" x1="218.865" y1="158.354" x2="218.685" y2="174.315" gradientUnits="userSpaceOnUse">
<stop stop-color="#68ACFD"/>
<stop offset="1" stop-color="#696BEB"/>
</linearGradient>
<linearGradient id="paint13_linear_87_738" x1="232.138" y1="155.644" x2="221.458" y2="175.522" gradientUnits="userSpaceOnUse">
<stop/>
<stop offset="0.84" stop-opacity="0"/>
</linearGradient>
<linearGradient id="paint14_linear_87_738" x1="175.712" y1="168.811" x2="281.869" y2="168.811" gradientUnits="userSpaceOnUse">
<stop/>
<stop offset="1" stop-opacity="0"/>
</linearGradient>
<linearGradient id="paint15_linear_87_738" x1="226.041" y1="172.394" x2="235.673" y2="189.599" gradientUnits="userSpaceOnUse">
<stop offset="0.32" stop-color="#53D86A" stop-opacity="0"/>
<stop offset="1" stop-color="#53D86A"/>
</linearGradient>
<linearGradient id="paint16_linear_87_738" x1="217.436" y1="150.114" x2="221.268" y2="170.542" gradientUnits="userSpaceOnUse">
<stop/>
<stop offset="0.84" stop-opacity="0"/>
</linearGradient>
<linearGradient id="paint17_linear_87_738" x1="217.912" y1="158.555" x2="261.002" y2="152.681" gradientUnits="userSpaceOnUse">
<stop/>
<stop offset="1" stop-opacity="0"/>
</linearGradient>
<linearGradient id="paint18_linear_87_738" x1="173.664" y1="145.102" x2="279.821" y2="145.102" gradientUnits="userSpaceOnUse">
<stop/>
<stop offset="1" stop-opacity="0"/>
</linearGradient>
<linearGradient id="paint19_linear_87_738" x1="210.667" y1="109.977" x2="200.771" y2="146.684" gradientUnits="userSpaceOnUse">
<stop/>
<stop offset="1" stop-opacity="0"/>
</linearGradient>
<linearGradient id="paint20_linear_87_738" x1="201.279" y1="123.102" x2="209.26" y2="151.828" gradientUnits="userSpaceOnUse">
<stop offset="0.32" stop-color="#53D86A" stop-opacity="0"/>
<stop offset="1" stop-color="#53D86A"/>
</linearGradient>
<linearGradient id="paint21_linear_87_738" x1="202.549" y1="134.804" x2="253.249" y2="134.804" gradientUnits="userSpaceOnUse">
<stop stop-color="#181966"/>
<stop offset="1" stop-color="#167FFC"/>
</linearGradient>
<linearGradient id="paint22_linear_87_738" x1="98.6946" y1="309.034" x2="98.6629" y2="244.379" gradientUnits="userSpaceOnUse">
<stop stop-color="#181966"/>
<stop offset="1" stop-color="#167FFC"/>
</linearGradient>
<linearGradient id="paint23_linear_87_738" x1="187.884" y1="346.46" x2="162.545" y2="224.686" gradientUnits="userSpaceOnUse">
<stop/>
<stop offset="1" stop-opacity="0"/>
</linearGradient>
<linearGradient id="paint24_linear_87_738" x1="76.6207" y1="154.289" x2="90.5816" y2="683.305" gradientUnits="userSpaceOnUse">
<stop stop-color="#68ACFD"/>
<stop offset="0.2" stop-color="#5D5FCF"/>
<stop offset="0.46" stop-color="#595BD4"/>
<stop offset="0.69" stop-color="#474876"/>
<stop offset="0.87" stop-color="#41415E"/>
<stop offset="0.99" stop-color="#3D3D56"/>
</linearGradient>
<linearGradient id="paint25_linear_87_738" x1="96.673" y1="227.036" x2="103.945" y2="49.2019" gradientUnits="userSpaceOnUse">
<stop offset="0.32" stop-color="#53D86A" stop-opacity="0"/>
<stop offset="0.54" stop-color="#53D86A"/>
</linearGradient>
<linearGradient id="paint26_linear_87_738" x1="213.721" y1="183.884" x2="216.822" y2="91.3227" gradientUnits="userSpaceOnUse">
<stop offset="0.02" stop-color="#68ACFD"/>
<stop offset="1" stop-color="#53D86A"/>
</linearGradient>
<linearGradient id="paint27_linear_87_738" x1="214.912" y1="152.374" x2="215.123" y2="130.983" gradientUnits="userSpaceOnUse">
<stop offset="0.66" stop-color="#53D86A" stop-opacity="0"/>
<stop offset="1" stop-color="#53D86A"/>
</linearGradient>
<linearGradient id="paint28_linear_87_738" x1="206.497" y1="154.348" x2="230.905" y2="154.348" gradientUnits="userSpaceOnUse">
<stop/>
<stop offset="1" stop-opacity="0"/>
</linearGradient>
<linearGradient id="paint29_linear_87_738" x1="1.50993e-05" y1="233.572" x2="196.431" y2="233.572" gradientUnits="userSpaceOnUse">
<stop stop-color="#68ACFD"/>
<stop offset="1" stop-color="#696BEB"/>
</linearGradient>
<linearGradient id="paint30_linear_87_738" x1="131.284" y1="358.241" x2="105.94" y2="236.467" gradientUnits="userSpaceOnUse">
<stop/>
<stop offset="1" stop-opacity="0"/>
</linearGradient>
<linearGradient id="paint31_linear_87_738" x1="187.011" y1="249.507" x2="204.116" y2="77.6952" gradientUnits="userSpaceOnUse">
<stop stop-color="#53D86A" stop-opacity="0"/>
<stop offset="0.54" stop-color="#53D86A"/>
</linearGradient>
<linearGradient id="paint32_linear_87_738" x1="200.617" y1="187.594" x2="215.494" y2="219.929" gradientUnits="userSpaceOnUse">
<stop/>
<stop offset="1" stop-opacity="0"/>
</linearGradient>
<linearGradient id="paint33_linear_87_738" x1="226.846" y1="175.527" x2="241.717" y2="207.863" gradientUnits="userSpaceOnUse">
<stop/>
<stop offset="1" stop-opacity="0"/>
</linearGradient>
<linearGradient id="paint34_linear_87_738" x1="233.302" y1="233.535" x2="231.37" y2="186.106" gradientUnits="userSpaceOnUse">
<stop stop-color="#53D86A" stop-opacity="0"/>
<stop offset="0.67" stop-color="#53D86A"/>
</linearGradient>
<linearGradient id="paint35_linear_87_738" x1="215.402" y1="173.479" x2="254.204" y2="234.916" gradientUnits="userSpaceOnUse">
<stop/>
<stop offset="1" stop-opacity="0"/>
</linearGradient>
<linearGradient id="paint36_linear_87_738" x1="238.145" y1="200.501" x2="251.073" y2="260.229" gradientUnits="userSpaceOnUse">
<stop/>
<stop offset="1" stop-opacity="0"/>
</linearGradient>
<linearGradient id="paint37_linear_87_738" x1="243.378" y1="199.368" x2="256.307" y2="259.096" gradientUnits="userSpaceOnUse">
<stop/>
<stop offset="1" stop-opacity="0"/>
</linearGradient>
<linearGradient id="paint38_linear_87_738" x1="217.478" y1="340.3" x2="192.134" y2="218.526" gradientUnits="userSpaceOnUse">
<stop/>
<stop offset="1" stop-opacity="0"/>
</linearGradient>
<linearGradient id="paint39_linear_87_738" x1="145.203" y1="181.587" x2="148.309" y2="89.0257" gradientUnits="userSpaceOnUse">
<stop offset="0.02" stop-color="#68ACFD"/>
<stop offset="1" stop-color="#53D86A"/>
</linearGradient>
<linearGradient id="paint40_linear_87_738" x1="144.811" y1="189.467" x2="147.992" y2="105.59" gradientUnits="userSpaceOnUse">
<stop stop-color="#53D86A" stop-opacity="0"/>
<stop offset="0.54" stop-color="#53D86A"/>
</linearGradient>
<linearGradient id="paint41_linear_87_738" x1="136.936" y1="166.61" x2="161.339" y2="166.61" gradientUnits="userSpaceOnUse">
<stop/>
<stop offset="1" stop-opacity="0"/>
</linearGradient>
<linearGradient id="paint42_linear_87_738" x1="88.8457" y1="115.683" x2="95.0111" y2="148.891" gradientUnits="userSpaceOnUse">
<stop/>
<stop offset="1" stop-opacity="0"/>
</linearGradient>
<linearGradient id="paint43_linear_87_738" x1="61.7073" y1="372.721" x2="36.3629" y2="250.947" gradientUnits="userSpaceOnUse">
<stop/>
<stop offset="1" stop-opacity="0"/>
</linearGradient>
<linearGradient id="paint44_linear_87_738" x1="143.054" y1="355.791" x2="117.71" y2="234.017" gradientUnits="userSpaceOnUse">
<stop/>
<stop offset="1" stop-opacity="0"/>
</linearGradient>
<linearGradient id="paint45_linear_87_738" x1="101.986" y1="78.473" x2="127.447" y2="78.473" gradientUnits="userSpaceOnUse">
<stop stop-color="#C4C5EC"/>
<stop offset="0.42" stop-color="#FE9526"/>
<stop offset="1" stop-color="#F2DEC9"/>
</linearGradient>
<linearGradient id="paint46_linear_87_738" x1="112.395" y1="82.8478" x2="183.173" y2="100.863" gradientUnits="userSpaceOnUse">
<stop/>
<stop offset="1" stop-opacity="0"/>
</linearGradient>
<linearGradient id="paint47_linear_87_738" x1="165.986" y1="63.4513" x2="0.656757" y2="137.251" gradientUnits="userSpaceOnUse">
<stop offset="0.32" stop-color="#53D86A" stop-opacity="0"/>
<stop offset="0.54" stop-color="#53D86A"/>
</linearGradient>
<linearGradient id="paint48_linear_87_738" x1="113.979" y1="86.8271" x2="187.858" y2="52.0254" gradientUnits="userSpaceOnUse">
<stop offset="0.32" stop-color="#53D86A" stop-opacity="0"/>
<stop offset="0.54" stop-color="#53D86A"/>
</linearGradient>
<linearGradient id="paint49_linear_87_738" x1="113.264" y1="79.2353" x2="92.8943" y2="63.872" gradientUnits="userSpaceOnUse">
<stop/>
<stop offset="1" stop-opacity="0"/>
</linearGradient>
<linearGradient id="paint50_linear_87_738" x1="109.231" y1="67.5444" x2="136.423" y2="108.856" gradientUnits="userSpaceOnUse">
<stop offset="0.32" stop-color="#53D86A" stop-opacity="0"/>
<stop offset="1" stop-color="#53D86A"/>
</linearGradient>
<linearGradient id="paint51_linear_87_738" x1="205.767" y1="31.15" x2="209.281" y2="31.15" gradientUnits="userSpaceOnUse">
<stop stop-color="#C4C5EC"/>
<stop offset="1" stop-color="#F2DEC9"/>
</linearGradient>
<clipPath id="clip0_87_738">
<rect width="300" height="315.945" fill="white"/>
</clipPath>
</defs>
</svg>
